<?xml version="1.0" encoding="utf-8" standalone="no"?>
<!DOCTYPE svg PUBLIC "-//W3C//DTD SVG 1.1//EN"
  "http://www.w3.org/Graphics/SVG/1.1/DTD/svg11.dtd">
<svg xmlns:xlink="http://www.w3.org/1999/xlink" width="460.8pt" height="345.6pt" viewBox="0 0 460.8 345.6" xmlns="http://www.w3.org/2000/svg" version="1.1">
 <metadata>
  <rdf:RDF xmlns:dc="http://purl.org/dc/elements/1.1/" xmlns:cc="http://creativecommons.org/ns#" xmlns:rdf="http://www.w3.org/1999/02/22-rdf-syntax-ns#">
   <cc:Work>
    <dc:type rdf:resource="http://purl.org/dc/dcmitype/StillImage"/>
    <dc:date>2023-04-03T15:58:31.365666</dc:date>
    <dc:format>image/svg+xml</dc:format>
    <dc:creator>
     <cc:Agent>
      <dc:title>Matplotlib v3.6.2, https://matplotlib.org/</dc:title>
     </cc:Agent>
    </dc:creator>
   </cc:Work>
  </rdf:RDF>
 </metadata>
 <defs>
  <style type="text/css">*{stroke-linejoin: round; stroke-linecap: butt}</style>
 </defs>
 <g id="figure_1">
  <g id="patch_1">
   <path d="M 0 345.6 
L 460.8 345.6 
L 460.8 0 
L 0 0 
L 0 345.6 
z
" style="fill: none; opacity: 0"/>
  </g>
  <g id="axes_1">
   <g id="patch_2">
    <path d="M 48.22 259.9664 
L 438.345 259.9664 
L 438.345 29.04 
L 48.22 29.04 
L 48.22 259.9664 
z
" style="fill: none; opacity: 0"/>
   </g>
   <g id="PathCollection_1">
    <defs>
     <path id="mdd21008d56" d="M 0 3 
C 0.795609 3 1.55874 2.683901 2.12132 2.12132 
C 2.683901 1.55874 3 0.795609 3 0 
C 3 -0.795609 2.683901 -1.55874 2.12132 -2.12132 
C 1.55874 -2.683901 0.795609 -3 0 -3 
C -0.795609 -3 -1.55874 -2.683901 -2.12132 -2.12132 
C -2.683901 -1.55874 -3 -0.795609 -3 0 
C -3 0.795609 -2.683901 1.55874 -2.12132 2.12132 
C -1.55874 2.683901 -0.795609 3 0 3 
z
" style="stroke: #3e4989; stroke-opacity: 0.8"/>
    </defs>
    <g clip-path="url(#pc163fa5cb3)">
     <use xlink:href="#mdd21008d56" x="65.952955" y="244.940166" style="fill: #3e4989; fill-opacity: 0.8; stroke: #3e4989; stroke-opacity: 0.8"/>
     <use xlink:href="#mdd21008d56" x="72.644636" y="245.049751" style="fill: #3e4989; fill-opacity: 0.8; stroke: #3e4989; stroke-opacity: 0.8"/>
     <use xlink:href="#mdd21008d56" x="79.336316" y="244.959924" style="fill: #3e4989; fill-opacity: 0.8; stroke: #3e4989; stroke-opacity: 0.8"/>
     <use xlink:href="#mdd21008d56" x="86.027997" y="244.469873" style="fill: #3e4989; fill-opacity: 0.8; stroke: #3e4989; stroke-opacity: 0.8"/>
     <use xlink:href="#mdd21008d56" x="92.719678" y="244.127521" style="fill: #3e4989; fill-opacity: 0.8; stroke: #3e4989; stroke-opacity: 0.8"/>
     <use xlink:href="#mdd21008d56" x="99.411359" y="243.935947" style="fill: #3e4989; fill-opacity: 0.8; stroke: #3e4989; stroke-opacity: 0.8"/>
     <use xlink:href="#mdd21008d56" x="106.10304" y="244.386751" style="fill: #3e4989; fill-opacity: 0.8; stroke: #3e4989; stroke-opacity: 0.8"/>
     <use xlink:href="#mdd21008d56" x="112.794721" y="244.854857" style="fill: #3e4989; fill-opacity: 0.8; stroke: #3e4989; stroke-opacity: 0.8"/>
     <use xlink:href="#mdd21008d56" x="119.486402" y="244.818322" style="fill: #3e4989; fill-opacity: 0.8; stroke: #3e4989; stroke-opacity: 0.8"/>
     <use xlink:href="#mdd21008d56" x="126.178083" y="244.168403" style="fill: #3e4989; fill-opacity: 0.8; stroke: #3e4989; stroke-opacity: 0.8"/>
     <use xlink:href="#mdd21008d56" x="132.869764" y="243.344371" style="fill: #3e4989; fill-opacity: 0.8; stroke: #3e4989; stroke-opacity: 0.8"/>
     <use xlink:href="#mdd21008d56" x="139.561445" y="242.893654" style="fill: #3e4989; fill-opacity: 0.8; stroke: #3e4989; stroke-opacity: 0.8"/>
     <use xlink:href="#mdd21008d56" x="146.253126" y="242.740794" style="fill: #3e4989; fill-opacity: 0.8; stroke: #3e4989; stroke-opacity: 0.8"/>
     <use xlink:href="#mdd21008d56" x="152.944807" y="242.553424" style="fill: #3e4989; fill-opacity: 0.8; stroke: #3e4989; stroke-opacity: 0.8"/>
     <use xlink:href="#mdd21008d56" x="159.636488" y="241.982822" style="fill: #3e4989; fill-opacity: 0.8; stroke: #3e4989; stroke-opacity: 0.8"/>
     <use xlink:href="#mdd21008d56" x="166.328169" y="242.257363" style="fill: #3e4989; fill-opacity: 0.8; stroke: #3e4989; stroke-opacity: 0.8"/>
     <use xlink:href="#mdd21008d56" x="173.01985" y="241.831126" style="fill: #3e4989; fill-opacity: 0.8; stroke: #3e4989; stroke-opacity: 0.8"/>
     <use xlink:href="#mdd21008d56" x="179.711531" y="241.752851" style="fill: #3e4989; fill-opacity: 0.8; stroke: #3e4989; stroke-opacity: 0.8"/>
     <use xlink:href="#mdd21008d56" x="186.403212" y="242.034752" style="fill: #3e4989; fill-opacity: 0.8; stroke: #3e4989; stroke-opacity: 0.8"/>
     <use xlink:href="#mdd21008d56" x="193.094893" y="241.820759" style="fill: #3e4989; fill-opacity: 0.8; stroke: #3e4989; stroke-opacity: 0.8"/>
     <use xlink:href="#mdd21008d56" x="199.786574" y="241.850138" style="fill: #3e4989; fill-opacity: 0.8; stroke: #3e4989; stroke-opacity: 0.8"/>
     <use xlink:href="#mdd21008d56" x="206.478255" y="243.004964" style="fill: #3e4989; fill-opacity: 0.8; stroke: #3e4989; stroke-opacity: 0.8"/>
     <use xlink:href="#mdd21008d56" x="213.169936" y="243.571849" style="fill: #3e4989; fill-opacity: 0.8; stroke: #3e4989; stroke-opacity: 0.8"/>
     <use xlink:href="#mdd21008d56" x="219.861617" y="244.078899" style="fill: #3e4989; fill-opacity: 0.8; stroke: #3e4989; stroke-opacity: 0.8"/>
     <use xlink:href="#mdd21008d56" x="226.553298" y="244.035162" style="fill: #3e4989; fill-opacity: 0.8; stroke: #3e4989; stroke-opacity: 0.8"/>
     <use xlink:href="#mdd21008d56" x="233.244979" y="244.071798" style="fill: #3e4989; fill-opacity: 0.8; stroke: #3e4989; stroke-opacity: 0.8"/>
     <use xlink:href="#mdd21008d56" x="239.93666" y="244.251613" style="fill: #3e4989; fill-opacity: 0.8; stroke: #3e4989; stroke-opacity: 0.8"/>
     <use xlink:href="#mdd21008d56" x="246.62834" y="244.263229" style="fill: #3e4989; fill-opacity: 0.8; stroke: #3e4989; stroke-opacity: 0.8"/>
     <use xlink:href="#mdd21008d56" x="253.320021" y="244.353642" style="fill: #3e4989; fill-opacity: 0.8; stroke: #3e4989; stroke-opacity: 0.8"/>
     <use xlink:href="#mdd21008d56" x="260.011702" y="244.342822" style="fill: #3e4989; fill-opacity: 0.8; stroke: #3e4989; stroke-opacity: 0.8"/>
     <use xlink:href="#mdd21008d56" x="266.703383" y="244.266347" style="fill: #3e4989; fill-opacity: 0.8; stroke: #3e4989; stroke-opacity: 0.8"/>
     <use xlink:href="#mdd21008d56" x="273.395064" y="244.455221" style="fill: #3e4989; fill-opacity: 0.8; stroke: #3e4989; stroke-opacity: 0.8"/>
     <use xlink:href="#mdd21008d56" x="280.086745" y="244.612918" style="fill: #3e4989; fill-opacity: 0.8; stroke: #3e4989; stroke-opacity: 0.8"/>
     <use xlink:href="#mdd21008d56" x="286.778426" y="244.837581" style="fill: #3e4989; fill-opacity: 0.8; stroke: #3e4989; stroke-opacity: 0.8"/>
     <use xlink:href="#mdd21008d56" x="293.470107" y="244.903082" style="fill: #3e4989; fill-opacity: 0.8; stroke: #3e4989; stroke-opacity: 0.8"/>
     <use xlink:href="#mdd21008d56" x="300.161788" y="244.869166" style="fill: #3e4989; fill-opacity: 0.8; stroke: #3e4989; stroke-opacity: 0.8"/>
     <use xlink:href="#mdd21008d56" x="306.853469" y="244.639853" style="fill: #3e4989; fill-opacity: 0.8; stroke: #3e4989; stroke-opacity: 0.8"/>
     <use xlink:href="#mdd21008d56" x="313.54515" y="244.519252" style="fill: #3e4989; fill-opacity: 0.8; stroke: #3e4989; stroke-opacity: 0.8"/>
     <use xlink:href="#mdd21008d56" x="320.236831" y="244.467634" style="fill: #3e4989; fill-opacity: 0.8; stroke: #3e4989; stroke-opacity: 0.8"/>
     <use xlink:href="#mdd21008d56" x="326.928512" y="244.149614" style="fill: #3e4989; fill-opacity: 0.8; stroke: #3e4989; stroke-opacity: 0.8"/>
     <use xlink:href="#mdd21008d56" x="333.620193" y="243.994013" style="fill: #3e4989; fill-opacity: 0.8; stroke: #3e4989; stroke-opacity: 0.8"/>
     <use xlink:href="#mdd21008d56" x="340.311874" y="243.839781" style="fill: #3e4989; fill-opacity: 0.8; stroke: #3e4989; stroke-opacity: 0.8"/>
     <use xlink:href="#mdd21008d56" x="347.003555" y="243.481842" style="fill: #3e4989; fill-opacity: 0.8; stroke: #3e4989; stroke-opacity: 0.8"/>
     <use xlink:href="#mdd21008d56" x="353.695236" y="243.245639" style="fill: #3e4989; fill-opacity: 0.8; stroke: #3e4989; stroke-opacity: 0.8"/>
     <use xlink:href="#mdd21008d56" x="360.386917" y="242.86789" style="fill: #3e4989; fill-opacity: 0.8; stroke: #3e4989; stroke-opacity: 0.8"/>
     <use xlink:href="#mdd21008d56" x="367.078598" y="242.504269" style="fill: #3e4989; fill-opacity: 0.8; stroke: #3e4989; stroke-opacity: 0.8"/>
     <use xlink:href="#mdd21008d56" x="373.770279" y="242.129278" style="fill: #3e4989; fill-opacity: 0.8; stroke: #3e4989; stroke-opacity: 0.8"/>
     <use xlink:href="#mdd21008d56" x="380.46196" y="241.733369" style="fill: #3e4989; fill-opacity: 0.8; stroke: #3e4989; stroke-opacity: 0.8"/>
     <use xlink:href="#mdd21008d56" x="387.153641" y="241.444955" style="fill: #3e4989; fill-opacity: 0.8; stroke: #3e4989; stroke-opacity: 0.8"/>
     <use xlink:href="#mdd21008d56" x="393.845322" y="241.38803" style="fill: #3e4989; fill-opacity: 0.8; stroke: #3e4989; stroke-opacity: 0.8"/>
     <use xlink:href="#mdd21008d56" x="400.537003" y="241.025734" style="fill: #3e4989; fill-opacity: 0.8; stroke: #3e4989; stroke-opacity: 0.8"/>
     <use xlink:href="#mdd21008d56" x="407.228684" y="241.065683" style="fill: #3e4989; fill-opacity: 0.8; stroke: #3e4989; stroke-opacity: 0.8"/>
     <use xlink:href="#mdd21008d56" x="413.920364" y="240.794418" style="fill: #3e4989; fill-opacity: 0.8; stroke: #3e4989; stroke-opacity: 0.8"/>
     <use xlink:href="#mdd21008d56" x="420.612045" y="240.745824" style="fill: #3e4989; fill-opacity: 0.8; stroke: #3e4989; stroke-opacity: 0.8"/>
    </g>
   </g>
   <g id="PathCollection_2">
    <defs>
     <path id="m8d3d78cb32" d="M 0 3 
C 0.795609 3 1.55874 2.683901 2.12132 2.12132 
C 2.683901 1.55874 3 0.795609 3 0 
C 3 -0.795609 2.683901 -1.55874 2.12132 -2.12132 
C 1.55874 -2.683901 0.795609 -3 0 -3 
C -0.795609 -3 -1.55874 -2.683901 -2.12132 -2.12132 
C -2.683901 -1.55874 -3 -0.795609 -3 0 
C -3 0.795609 -2.683901 1.55874 -2.12132 2.12132 
C -1.55874 2.683901 -0.795609 3 0 3 
z
" style="stroke: #482878; stroke-opacity: 0.8"/>
    </defs>
    <g clip-path="url(#pc163fa5cb3)">
     <use xlink:href="#m8d3d78cb32" x="65.952955" y="249.469745" style="fill: #482878; fill-opacity: 0.8; stroke: #482878; stroke-opacity: 0.8"/>
     <use xlink:href="#m8d3d78cb32" x="72.644636" y="249.302542" style="fill: #482878; fill-opacity: 0.8; stroke: #482878; stroke-opacity: 0.8"/>
     <use xlink:href="#m8d3d78cb32" x="79.336316" y="249.11742" style="fill: #482878; fill-opacity: 0.8; stroke: #482878; stroke-opacity: 0.8"/>
     <use xlink:href="#m8d3d78cb32" x="86.027997" y="248.883628" style="fill: #482878; fill-opacity: 0.8; stroke: #482878; stroke-opacity: 0.8"/>
     <use xlink:href="#m8d3d78cb32" x="92.719678" y="248.508533" style="fill: #482878; fill-opacity: 0.8; stroke: #482878; stroke-opacity: 0.8"/>
     <use xlink:href="#m8d3d78cb32" x="99.411359" y="248.298775" style="fill: #482878; fill-opacity: 0.8; stroke: #482878; stroke-opacity: 0.8"/>
     <use xlink:href="#m8d3d78cb32" x="106.10304" y="247.961656" style="fill: #482878; fill-opacity: 0.8; stroke: #482878; stroke-opacity: 0.8"/>
     <use xlink:href="#m8d3d78cb32" x="112.794721" y="247.66032" style="fill: #482878; fill-opacity: 0.8; stroke: #482878; stroke-opacity: 0.8"/>
     <use xlink:href="#m8d3d78cb32" x="119.486402" y="247.026798" style="fill: #482878; fill-opacity: 0.8; stroke: #482878; stroke-opacity: 0.8"/>
     <use xlink:href="#m8d3d78cb32" x="126.178083" y="246.465542" style="fill: #482878; fill-opacity: 0.8; stroke: #482878; stroke-opacity: 0.8"/>
     <use xlink:href="#m8d3d78cb32" x="132.869764" y="246.146251" style="fill: #482878; fill-opacity: 0.8; stroke: #482878; stroke-opacity: 0.8"/>
     <use xlink:href="#m8d3d78cb32" x="139.561445" y="245.884951" style="fill: #482878; fill-opacity: 0.8; stroke: #482878; stroke-opacity: 0.8"/>
     <use xlink:href="#m8d3d78cb32" x="146.253126" y="245.457909" style="fill: #482878; fill-opacity: 0.8; stroke: #482878; stroke-opacity: 0.8"/>
     <use xlink:href="#m8d3d78cb32" x="152.944807" y="244.957188" style="fill: #482878; fill-opacity: 0.8; stroke: #482878; stroke-opacity: 0.8"/>
     <use xlink:href="#m8d3d78cb32" x="159.636488" y="244.949473" style="fill: #482878; fill-opacity: 0.8; stroke: #482878; stroke-opacity: 0.8"/>
     <use xlink:href="#m8d3d78cb32" x="166.328169" y="244.704259" style="fill: #482878; fill-opacity: 0.8; stroke: #482878; stroke-opacity: 0.8"/>
     <use xlink:href="#m8d3d78cb32" x="173.01985" y="244.295475" style="fill: #482878; fill-opacity: 0.8; stroke: #482878; stroke-opacity: 0.8"/>
     <use xlink:href="#m8d3d78cb32" x="179.711531" y="243.977787" style="fill: #482878; fill-opacity: 0.8; stroke: #482878; stroke-opacity: 0.8"/>
     <use xlink:href="#m8d3d78cb32" x="186.403212" y="243.771554" style="fill: #482878; fill-opacity: 0.8; stroke: #482878; stroke-opacity: 0.8"/>
     <use xlink:href="#m8d3d78cb32" x="193.094893" y="243.476548" style="fill: #482878; fill-opacity: 0.8; stroke: #482878; stroke-opacity: 0.8"/>
     <use xlink:href="#m8d3d78cb32" x="199.786574" y="243.301752" style="fill: #482878; fill-opacity: 0.8; stroke: #482878; stroke-opacity: 0.8"/>
     <use xlink:href="#m8d3d78cb32" x="206.478255" y="243.050831" style="fill: #482878; fill-opacity: 0.8; stroke: #482878; stroke-opacity: 0.8"/>
     <use xlink:href="#m8d3d78cb32" x="213.169936" y="242.980711" style="fill: #482878; fill-opacity: 0.8; stroke: #482878; stroke-opacity: 0.8"/>
     <use xlink:href="#m8d3d78cb32" x="219.861617" y="242.769278" style="fill: #482878; fill-opacity: 0.8; stroke: #482878; stroke-opacity: 0.8"/>
     <use xlink:href="#m8d3d78cb32" x="226.553298" y="242.608397" style="fill: #482878; fill-opacity: 0.8; stroke: #482878; stroke-opacity: 0.8"/>
     <use xlink:href="#m8d3d78cb32" x="233.244979" y="242.300667" style="fill: #482878; fill-opacity: 0.8; stroke: #482878; stroke-opacity: 0.8"/>
     <use xlink:href="#m8d3d78cb32" x="239.93666" y="242.026362" style="fill: #482878; fill-opacity: 0.8; stroke: #482878; stroke-opacity: 0.8"/>
     <use xlink:href="#m8d3d78cb32" x="246.62834" y="241.619778" style="fill: #482878; fill-opacity: 0.8; stroke: #482878; stroke-opacity: 0.8"/>
     <use xlink:href="#m8d3d78cb32" x="253.320021" y="240.962507" style="fill: #482878; fill-opacity: 0.8; stroke: #482878; stroke-opacity: 0.8"/>
     <use xlink:href="#m8d3d78cb32" x="260.011702" y="240.606629" style="fill: #482878; fill-opacity: 0.8; stroke: #482878; stroke-opacity: 0.8"/>
     <use xlink:href="#m8d3d78cb32" x="266.703383" y="239.93802" style="fill: #482878; fill-opacity: 0.8; stroke: #482878; stroke-opacity: 0.8"/>
     <use xlink:href="#m8d3d78cb32" x="273.395064" y="239.565769" style="fill: #482878; fill-opacity: 0.8; stroke: #482878; stroke-opacity: 0.8"/>
     <use xlink:href="#m8d3d78cb32" x="280.086745" y="239.144523" style="fill: #482878; fill-opacity: 0.8; stroke: #482878; stroke-opacity: 0.8"/>
     <use xlink:href="#m8d3d78cb32" x="286.778426" y="238.865841" style="fill: #482878; fill-opacity: 0.8; stroke: #482878; stroke-opacity: 0.8"/>
     <use xlink:href="#m8d3d78cb32" x="293.470107" y="238.460687" style="fill: #482878; fill-opacity: 0.8; stroke: #482878; stroke-opacity: 0.8"/>
     <use xlink:href="#m8d3d78cb32" x="300.161788" y="237.655072" style="fill: #482878; fill-opacity: 0.8; stroke: #482878; stroke-opacity: 0.8"/>
     <use xlink:href="#m8d3d78cb32" x="306.853469" y="236.987184" style="fill: #482878; fill-opacity: 0.8; stroke: #482878; stroke-opacity: 0.8"/>
     <use xlink:href="#m8d3d78cb32" x="313.54515" y="236.562139" style="fill: #482878; fill-opacity: 0.8; stroke: #482878; stroke-opacity: 0.8"/>
     <use xlink:href="#m8d3d78cb32" x="320.236831" y="236.644621" style="fill: #482878; fill-opacity: 0.8; stroke: #482878; stroke-opacity: 0.8"/>
     <use xlink:href="#m8d3d78cb32" x="326.928512" y="236.317893" style="fill: #482878; fill-opacity: 0.8; stroke: #482878; stroke-opacity: 0.8"/>
     <use xlink:href="#m8d3d78cb32" x="333.620193" y="235.533449" style="fill: #482878; fill-opacity: 0.8; stroke: #482878; stroke-opacity: 0.8"/>
     <use xlink:href="#m8d3d78cb32" x="340.311874" y="235.22192" style="fill: #482878; fill-opacity: 0.8; stroke: #482878; stroke-opacity: 0.8"/>
     <use xlink:href="#m8d3d78cb32" x="347.003555" y="234.817887" style="fill: #482878; fill-opacity: 0.8; stroke: #482878; stroke-opacity: 0.8"/>
     <use xlink:href="#m8d3d78cb32" x="353.695236" y="234.059016" style="fill: #482878; fill-opacity: 0.8; stroke: #482878; stroke-opacity: 0.8"/>
     <use xlink:href="#m8d3d78cb32" x="360.386917" y="233.018764" style="fill: #482878; fill-opacity: 0.8; stroke: #482878; stroke-opacity: 0.8"/>
     <use xlink:href="#m8d3d78cb32" x="367.078598" y="231.974061" style="fill: #482878; fill-opacity: 0.8; stroke: #482878; stroke-opacity: 0.8"/>
     <use xlink:href="#m8d3d78cb32" x="373.770279" y="230.749744" style="fill: #482878; fill-opacity: 0.8; stroke: #482878; stroke-opacity: 0.8"/>
     <use xlink:href="#m8d3d78cb32" x="380.46196" y="229.32312" style="fill: #482878; fill-opacity: 0.8; stroke: #482878; stroke-opacity: 0.8"/>
     <use xlink:href="#m8d3d78cb32" x="387.153641" y="228.54195" style="fill: #482878; fill-opacity: 0.8; stroke: #482878; stroke-opacity: 0.8"/>
     <use xlink:href="#m8d3d78cb32" x="393.845322" y="228.171816" style="fill: #482878; fill-opacity: 0.8; stroke: #482878; stroke-opacity: 0.8"/>
     <use xlink:href="#m8d3d78cb32" x="400.537003" y="226.525368" style="fill: #482878; fill-opacity: 0.8; stroke: #482878; stroke-opacity: 0.8"/>
     <use xlink:href="#m8d3d78cb32" x="407.228684" y="225.241698" style="fill: #482878; fill-opacity: 0.8; stroke: #482878; stroke-opacity: 0.8"/>
     <use xlink:href="#m8d3d78cb32" x="413.920364" y="224.116222" style="fill: #482878; fill-opacity: 0.8; stroke: #482878; stroke-opacity: 0.8"/>
     <use xlink:href="#m8d3d78cb32" x="420.612045" y="222.861044" style="fill: #482878; fill-opacity: 0.8; stroke: #482878; stroke-opacity: 0.8"/>
    </g>
   </g>
   <g id="PathCollection_3">
    <defs>
     <path id="m7e59ca0c42" d="M 0 3 
C 0.795609 3 1.55874 2.683901 2.12132 2.12132 
C 2.683901 1.55874 3 0.795609 3 0 
C 3 -0.795609 2.683901 -1.55874 2.12132 -2.12132 
C 1.55874 -2.683901 0.795609 -3 0 -3 
C -0.795609 -3 -1.55874 -2.683901 -2.12132 -2.12132 
C -2.683901 -1.55874 -3 -0.795609 -3 0 
C -3 0.795609 -2.683901 1.55874 -2.12132 2.12132 
C -1.55874 2.683901 -0.795609 3 0 3 
z
" style="stroke: #31688e; stroke-opacity: 0.8"/>
    </defs>
    <g clip-path="url(#pc163fa5cb3)">
     <use xlink:href="#m7e59ca0c42" x="65.952955" y="191.014048" style="fill: #31688e; fill-opacity: 0.8; stroke: #31688e; stroke-opacity: 0.8"/>
     <use xlink:href="#m7e59ca0c42" x="72.644636" y="188.564326" style="fill: #31688e; fill-opacity: 0.8; stroke: #31688e; stroke-opacity: 0.8"/>
     <use xlink:href="#m7e59ca0c42" x="79.336316" y="185.590171" style="fill: #31688e; fill-opacity: 0.8; stroke: #31688e; stroke-opacity: 0.8"/>
     <use xlink:href="#m7e59ca0c42" x="86.027997" y="182.439327" style="fill: #31688e; fill-opacity: 0.8; stroke: #31688e; stroke-opacity: 0.8"/>
     <use xlink:href="#m7e59ca0c42" x="92.719678" y="178.753174" style="fill: #31688e; fill-opacity: 0.8; stroke: #31688e; stroke-opacity: 0.8"/>
     <use xlink:href="#m7e59ca0c42" x="99.411359" y="175.974021" style="fill: #31688e; fill-opacity: 0.8; stroke: #31688e; stroke-opacity: 0.8"/>
     <use xlink:href="#m7e59ca0c42" x="106.10304" y="173.313992" style="fill: #31688e; fill-opacity: 0.8; stroke: #31688e; stroke-opacity: 0.8"/>
     <use xlink:href="#m7e59ca0c42" x="112.794721" y="170.217376" style="fill: #31688e; fill-opacity: 0.8; stroke: #31688e; stroke-opacity: 0.8"/>
     <use xlink:href="#m7e59ca0c42" x="119.486402" y="166.628864" style="fill: #31688e; fill-opacity: 0.8; stroke: #31688e; stroke-opacity: 0.8"/>
     <use xlink:href="#m7e59ca0c42" x="126.178083" y="161.933223" style="fill: #31688e; fill-opacity: 0.8; stroke: #31688e; stroke-opacity: 0.8"/>
     <use xlink:href="#m7e59ca0c42" x="132.869764" y="157.024107" style="fill: #31688e; fill-opacity: 0.8; stroke: #31688e; stroke-opacity: 0.8"/>
     <use xlink:href="#m7e59ca0c42" x="139.561445" y="153.659032" style="fill: #31688e; fill-opacity: 0.8; stroke: #31688e; stroke-opacity: 0.8"/>
     <use xlink:href="#m7e59ca0c42" x="146.253126" y="149.825043" style="fill: #31688e; fill-opacity: 0.8; stroke: #31688e; stroke-opacity: 0.8"/>
     <use xlink:href="#m7e59ca0c42" x="152.944807" y="144.159855" style="fill: #31688e; fill-opacity: 0.8; stroke: #31688e; stroke-opacity: 0.8"/>
     <use xlink:href="#m7e59ca0c42" x="159.636488" y="141.673424" style="fill: #31688e; fill-opacity: 0.8; stroke: #31688e; stroke-opacity: 0.8"/>
     <use xlink:href="#m7e59ca0c42" x="166.328169" y="143.027187" style="fill: #31688e; fill-opacity: 0.8; stroke: #31688e; stroke-opacity: 0.8"/>
     <use xlink:href="#m7e59ca0c42" x="173.01985" y="138.518698" style="fill: #31688e; fill-opacity: 0.8; stroke: #31688e; stroke-opacity: 0.8"/>
     <use xlink:href="#m7e59ca0c42" x="179.711531" y="135.508722" style="fill: #31688e; fill-opacity: 0.8; stroke: #31688e; stroke-opacity: 0.8"/>
     <use xlink:href="#m7e59ca0c42" x="186.403212" y="131.914583" style="fill: #31688e; fill-opacity: 0.8; stroke: #31688e; stroke-opacity: 0.8"/>
     <use xlink:href="#m7e59ca0c42" x="193.094893" y="127.981886" style="fill: #31688e; fill-opacity: 0.8; stroke: #31688e; stroke-opacity: 0.8"/>
     <use xlink:href="#m7e59ca0c42" x="199.786574" y="126.696353" style="fill: #31688e; fill-opacity: 0.8; stroke: #31688e; stroke-opacity: 0.8"/>
     <use xlink:href="#m7e59ca0c42" x="206.478255" y="126.583064" style="fill: #31688e; fill-opacity: 0.8; stroke: #31688e; stroke-opacity: 0.8"/>
     <use xlink:href="#m7e59ca0c42" x="213.169936" y="125.436544" style="fill: #31688e; fill-opacity: 0.8; stroke: #31688e; stroke-opacity: 0.8"/>
     <use xlink:href="#m7e59ca0c42" x="219.861617" y="123.615248" style="fill: #31688e; fill-opacity: 0.8; stroke: #31688e; stroke-opacity: 0.8"/>
     <use xlink:href="#m7e59ca0c42" x="226.553298" y="121.030259" style="fill: #31688e; fill-opacity: 0.8; stroke: #31688e; stroke-opacity: 0.8"/>
     <use xlink:href="#m7e59ca0c42" x="233.244979" y="118.226997" style="fill: #31688e; fill-opacity: 0.8; stroke: #31688e; stroke-opacity: 0.8"/>
     <use xlink:href="#m7e59ca0c42" x="239.93666" y="115.182305" style="fill: #31688e; fill-opacity: 0.8; stroke: #31688e; stroke-opacity: 0.8"/>
     <use xlink:href="#m7e59ca0c42" x="246.62834" y="121.871903" style="fill: #31688e; fill-opacity: 0.8; stroke: #31688e; stroke-opacity: 0.8"/>
     <use xlink:href="#m7e59ca0c42" x="253.320021" y="116.669663" style="fill: #31688e; fill-opacity: 0.8; stroke: #31688e; stroke-opacity: 0.8"/>
     <use xlink:href="#m7e59ca0c42" x="260.011702" y="130.094496" style="fill: #31688e; fill-opacity: 0.8; stroke: #31688e; stroke-opacity: 0.8"/>
     <use xlink:href="#m7e59ca0c42" x="266.703383" y="136.632761" style="fill: #31688e; fill-opacity: 0.8; stroke: #31688e; stroke-opacity: 0.8"/>
     <use xlink:href="#m7e59ca0c42" x="273.395064" y="137.138177" style="fill: #31688e; fill-opacity: 0.8; stroke: #31688e; stroke-opacity: 0.8"/>
     <use xlink:href="#m7e59ca0c42" x="280.086745" y="137.771567" style="fill: #31688e; fill-opacity: 0.8; stroke: #31688e; stroke-opacity: 0.8"/>
     <use xlink:href="#m7e59ca0c42" x="286.778426" y="138.869039" style="fill: #31688e; fill-opacity: 0.8; stroke: #31688e; stroke-opacity: 0.8"/>
     <use xlink:href="#m7e59ca0c42" x="293.470107" y="137.473264" style="fill: #31688e; fill-opacity: 0.8; stroke: #31688e; stroke-opacity: 0.8"/>
     <use xlink:href="#m7e59ca0c42" x="300.161788" y="137.550702" style="fill: #31688e; fill-opacity: 0.8; stroke: #31688e; stroke-opacity: 0.8"/>
     <use xlink:href="#m7e59ca0c42" x="306.853469" y="135.809568" style="fill: #31688e; fill-opacity: 0.8; stroke: #31688e; stroke-opacity: 0.8"/>
     <use xlink:href="#m7e59ca0c42" x="313.54515" y="132.675752" style="fill: #31688e; fill-opacity: 0.8; stroke: #31688e; stroke-opacity: 0.8"/>
     <use xlink:href="#m7e59ca0c42" x="320.236831" y="129.194501" style="fill: #31688e; fill-opacity: 0.8; stroke: #31688e; stroke-opacity: 0.8"/>
     <use xlink:href="#m7e59ca0c42" x="326.928512" y="125.308099" style="fill: #31688e; fill-opacity: 0.8; stroke: #31688e; stroke-opacity: 0.8"/>
     <use xlink:href="#m7e59ca0c42" x="333.620193" y="120.137445" style="fill: #31688e; fill-opacity: 0.8; stroke: #31688e; stroke-opacity: 0.8"/>
     <use xlink:href="#m7e59ca0c42" x="340.311874" y="117.315801" style="fill: #31688e; fill-opacity: 0.8; stroke: #31688e; stroke-opacity: 0.8"/>
     <use xlink:href="#m7e59ca0c42" x="347.003555" y="115.830567" style="fill: #31688e; fill-opacity: 0.8; stroke: #31688e; stroke-opacity: 0.8"/>
     <use xlink:href="#m7e59ca0c42" x="353.695236" y="114.327008" style="fill: #31688e; fill-opacity: 0.8; stroke: #31688e; stroke-opacity: 0.8"/>
     <use xlink:href="#m7e59ca0c42" x="360.386917" y="110.7177" style="fill: #31688e; fill-opacity: 0.8; stroke: #31688e; stroke-opacity: 0.8"/>
     <use xlink:href="#m7e59ca0c42" x="367.078598" y="107.991888" style="fill: #31688e; fill-opacity: 0.8; stroke: #31688e; stroke-opacity: 0.8"/>
     <use xlink:href="#m7e59ca0c42" x="373.770279" y="103.551093" style="fill: #31688e; fill-opacity: 0.8; stroke: #31688e; stroke-opacity: 0.8"/>
     <use xlink:href="#m7e59ca0c42" x="380.46196" y="99.130187" style="fill: #31688e; fill-opacity: 0.8; stroke: #31688e; stroke-opacity: 0.8"/>
     <use xlink:href="#m7e59ca0c42" x="387.153641" y="98.284863" style="fill: #31688e; fill-opacity: 0.8; stroke: #31688e; stroke-opacity: 0.8"/>
     <use xlink:href="#m7e59ca0c42" x="393.845322" y="104.991288" style="fill: #31688e; fill-opacity: 0.8; stroke: #31688e; stroke-opacity: 0.8"/>
     <use xlink:href="#m7e59ca0c42" x="400.537003" y="101.985699" style="fill: #31688e; fill-opacity: 0.8; stroke: #31688e; stroke-opacity: 0.8"/>
     <use xlink:href="#m7e59ca0c42" x="407.228684" y="99.080519" style="fill: #31688e; fill-opacity: 0.8; stroke: #31688e; stroke-opacity: 0.8"/>
     <use xlink:href="#m7e59ca0c42" x="413.920364" y="99.30608" style="fill: #31688e; fill-opacity: 0.8; stroke: #31688e; stroke-opacity: 0.8"/>
     <use xlink:href="#m7e59ca0c42" x="420.612045" y="99.06286" style="fill: #31688e; fill-opacity: 0.8; stroke: #31688e; stroke-opacity: 0.8"/>
    </g>
   </g>
   <g id="PathCollection_4">
    <defs>
     <path id="m5f4592d8a2" d="M 0 3 
C 0.795609 3 1.55874 2.683901 2.12132 2.12132 
C 2.683901 1.55874 3 0.795609 3 0 
C 3 -0.795609 2.683901 -1.55874 2.12132 -2.12132 
C 1.55874 -2.683901 0.795609 -3 0 -3 
C -0.795609 -3 -1.55874 -2.683901 -2.12132 -2.12132 
C -2.683901 -1.55874 -3 -0.795609 -3 0 
C -3 0.795609 -2.683901 1.55874 -2.12132 2.12132 
C -1.55874 2.683901 -0.795609 3 0 3 
z
" style="stroke: #1f9e89; stroke-opacity: 0.8"/>
    </defs>
    <g clip-path="url(#pc163fa5cb3)">
     <use xlink:href="#m5f4592d8a2" x="65.952955" y="169.115892" style="fill: #1f9e89; fill-opacity: 0.8; stroke: #1f9e89; stroke-opacity: 0.8"/>
     <use xlink:href="#m5f4592d8a2" x="72.644636" y="168.752753" style="fill: #1f9e89; fill-opacity: 0.8; stroke: #1f9e89; stroke-opacity: 0.8"/>
     <use xlink:href="#m5f4592d8a2" x="79.336316" y="165.305239" style="fill: #1f9e89; fill-opacity: 0.8; stroke: #1f9e89; stroke-opacity: 0.8"/>
     <use xlink:href="#m5f4592d8a2" x="86.027997" y="162.944957" style="fill: #1f9e89; fill-opacity: 0.8; stroke: #1f9e89; stroke-opacity: 0.8"/>
     <use xlink:href="#m5f4592d8a2" x="92.719678" y="159.187972" style="fill: #1f9e89; fill-opacity: 0.8; stroke: #1f9e89; stroke-opacity: 0.8"/>
     <use xlink:href="#m5f4592d8a2" x="99.411359" y="155.847691" style="fill: #1f9e89; fill-opacity: 0.8; stroke: #1f9e89; stroke-opacity: 0.8"/>
     <use xlink:href="#m5f4592d8a2" x="106.10304" y="151.740292" style="fill: #1f9e89; fill-opacity: 0.8; stroke: #1f9e89; stroke-opacity: 0.8"/>
     <use xlink:href="#m5f4592d8a2" x="112.794721" y="150.661746" style="fill: #1f9e89; fill-opacity: 0.8; stroke: #1f9e89; stroke-opacity: 0.8"/>
     <use xlink:href="#m5f4592d8a2" x="119.486402" y="147.138559" style="fill: #1f9e89; fill-opacity: 0.8; stroke: #1f9e89; stroke-opacity: 0.8"/>
     <use xlink:href="#m5f4592d8a2" x="126.178083" y="145.403134" style="fill: #1f9e89; fill-opacity: 0.8; stroke: #1f9e89; stroke-opacity: 0.8"/>
     <use xlink:href="#m5f4592d8a2" x="132.869764" y="149.766551" style="fill: #1f9e89; fill-opacity: 0.8; stroke: #1f9e89; stroke-opacity: 0.8"/>
     <use xlink:href="#m5f4592d8a2" x="139.561445" y="148.08086" style="fill: #1f9e89; fill-opacity: 0.8; stroke: #1f9e89; stroke-opacity: 0.8"/>
     <use xlink:href="#m5f4592d8a2" x="146.253126" y="144.088752" style="fill: #1f9e89; fill-opacity: 0.8; stroke: #1f9e89; stroke-opacity: 0.8"/>
     <use xlink:href="#m5f4592d8a2" x="152.944807" y="139.518507" style="fill: #1f9e89; fill-opacity: 0.8; stroke: #1f9e89; stroke-opacity: 0.8"/>
     <use xlink:href="#m5f4592d8a2" x="159.636488" y="141.364436" style="fill: #1f9e89; fill-opacity: 0.8; stroke: #1f9e89; stroke-opacity: 0.8"/>
     <use xlink:href="#m5f4592d8a2" x="166.328169" y="142.846691" style="fill: #1f9e89; fill-opacity: 0.8; stroke: #1f9e89; stroke-opacity: 0.8"/>
     <use xlink:href="#m5f4592d8a2" x="173.01985" y="138.640967" style="fill: #1f9e89; fill-opacity: 0.8; stroke: #1f9e89; stroke-opacity: 0.8"/>
     <use xlink:href="#m5f4592d8a2" x="179.711531" y="135.255273" style="fill: #1f9e89; fill-opacity: 0.8; stroke: #1f9e89; stroke-opacity: 0.8"/>
     <use xlink:href="#m5f4592d8a2" x="186.403212" y="130.382385" style="fill: #1f9e89; fill-opacity: 0.8; stroke: #1f9e89; stroke-opacity: 0.8"/>
     <use xlink:href="#m5f4592d8a2" x="193.094893" y="127.966043" style="fill: #1f9e89; fill-opacity: 0.8; stroke: #1f9e89; stroke-opacity: 0.8"/>
     <use xlink:href="#m5f4592d8a2" x="199.786574" y="129.250471" style="fill: #1f9e89; fill-opacity: 0.8; stroke: #1f9e89; stroke-opacity: 0.8"/>
     <use xlink:href="#m5f4592d8a2" x="206.478255" y="127.264775" style="fill: #1f9e89; fill-opacity: 0.8; stroke: #1f9e89; stroke-opacity: 0.8"/>
     <use xlink:href="#m5f4592d8a2" x="213.169936" y="130.949457" style="fill: #1f9e89; fill-opacity: 0.8; stroke: #1f9e89; stroke-opacity: 0.8"/>
     <use xlink:href="#m5f4592d8a2" x="219.861617" y="127.794697" style="fill: #1f9e89; fill-opacity: 0.8; stroke: #1f9e89; stroke-opacity: 0.8"/>
     <use xlink:href="#m5f4592d8a2" x="226.553298" y="120.77332" style="fill: #1f9e89; fill-opacity: 0.8; stroke: #1f9e89; stroke-opacity: 0.8"/>
     <use xlink:href="#m5f4592d8a2" x="233.244979" y="117.211825" style="fill: #1f9e89; fill-opacity: 0.8; stroke: #1f9e89; stroke-opacity: 0.8"/>
     <use xlink:href="#m5f4592d8a2" x="239.93666" y="114.846214" style="fill: #1f9e89; fill-opacity: 0.8; stroke: #1f9e89; stroke-opacity: 0.8"/>
     <use xlink:href="#m5f4592d8a2" x="246.62834" y="111.952119" style="fill: #1f9e89; fill-opacity: 0.8; stroke: #1f9e89; stroke-opacity: 0.8"/>
     <use xlink:href="#m5f4592d8a2" x="253.320021" y="108.135563" style="fill: #1f9e89; fill-opacity: 0.8; stroke: #1f9e89; stroke-opacity: 0.8"/>
     <use xlink:href="#m5f4592d8a2" x="260.011702" y="104.652695" style="fill: #1f9e89; fill-opacity: 0.8; stroke: #1f9e89; stroke-opacity: 0.8"/>
     <use xlink:href="#m5f4592d8a2" x="266.703383" y="103.758834" style="fill: #1f9e89; fill-opacity: 0.8; stroke: #1f9e89; stroke-opacity: 0.8"/>
     <use xlink:href="#m5f4592d8a2" x="273.395064" y="105.858645" style="fill: #1f9e89; fill-opacity: 0.8; stroke: #1f9e89; stroke-opacity: 0.8"/>
     <use xlink:href="#m5f4592d8a2" x="280.086745" y="103.08509" style="fill: #1f9e89; fill-opacity: 0.8; stroke: #1f9e89; stroke-opacity: 0.8"/>
     <use xlink:href="#m5f4592d8a2" x="286.778426" y="101.385674" style="fill: #1f9e89; fill-opacity: 0.8; stroke: #1f9e89; stroke-opacity: 0.8"/>
     <use xlink:href="#m5f4592d8a2" x="293.470107" y="97.486682" style="fill: #1f9e89; fill-opacity: 0.8; stroke: #1f9e89; stroke-opacity: 0.8"/>
     <use xlink:href="#m5f4592d8a2" x="300.161788" y="96.31367" style="fill: #1f9e89; fill-opacity: 0.8; stroke: #1f9e89; stroke-opacity: 0.8"/>
     <use xlink:href="#m5f4592d8a2" x="306.853469" y="92.33928" style="fill: #1f9e89; fill-opacity: 0.8; stroke: #1f9e89; stroke-opacity: 0.8"/>
     <use xlink:href="#m5f4592d8a2" x="313.54515" y="85.929001" style="fill: #1f9e89; fill-opacity: 0.8; stroke: #1f9e89; stroke-opacity: 0.8"/>
     <use xlink:href="#m5f4592d8a2" x="320.236831" y="80.689544" style="fill: #1f9e89; fill-opacity: 0.8; stroke: #1f9e89; stroke-opacity: 0.8"/>
     <use xlink:href="#m5f4592d8a2" x="326.928512" y="74.839693" style="fill: #1f9e89; fill-opacity: 0.8; stroke: #1f9e89; stroke-opacity: 0.8"/>
     <use xlink:href="#m5f4592d8a2" x="333.620193" y="69.64487" style="fill: #1f9e89; fill-opacity: 0.8; stroke: #1f9e89; stroke-opacity: 0.8"/>
     <use xlink:href="#m5f4592d8a2" x="340.311874" y="69.981073" style="fill: #1f9e89; fill-opacity: 0.8; stroke: #1f9e89; stroke-opacity: 0.8"/>
     <use xlink:href="#m5f4592d8a2" x="347.003555" y="68.921824" style="fill: #1f9e89; fill-opacity: 0.8; stroke: #1f9e89; stroke-opacity: 0.8"/>
     <use xlink:href="#m5f4592d8a2" x="353.695236" y="66.039497" style="fill: #1f9e89; fill-opacity: 0.8; stroke: #1f9e89; stroke-opacity: 0.8"/>
     <use xlink:href="#m5f4592d8a2" x="360.386917" y="60.957762" style="fill: #1f9e89; fill-opacity: 0.8; stroke: #1f9e89; stroke-opacity: 0.8"/>
     <use xlink:href="#m5f4592d8a2" x="367.078598" y="56.520216" style="fill: #1f9e89; fill-opacity: 0.8; stroke: #1f9e89; stroke-opacity: 0.8"/>
     <use xlink:href="#m5f4592d8a2" x="373.770279" y="52.92408" style="fill: #1f9e89; fill-opacity: 0.8; stroke: #1f9e89; stroke-opacity: 0.8"/>
     <use xlink:href="#m5f4592d8a2" x="380.46196" y="50.897072" style="fill: #1f9e89; fill-opacity: 0.8; stroke: #1f9e89; stroke-opacity: 0.8"/>
     <use xlink:href="#m5f4592d8a2" x="387.153641" y="52.437218" style="fill: #1f9e89; fill-opacity: 0.8; stroke: #1f9e89; stroke-opacity: 0.8"/>
     <use xlink:href="#m5f4592d8a2" x="393.845322" y="59.890997" style="fill: #1f9e89; fill-opacity: 0.8; stroke: #1f9e89; stroke-opacity: 0.8"/>
     <use xlink:href="#m5f4592d8a2" x="400.537003" y="56.332295" style="fill: #1f9e89; fill-opacity: 0.8; stroke: #1f9e89; stroke-opacity: 0.8"/>
     <use xlink:href="#m5f4592d8a2" x="407.228684" y="54.641505" style="fill: #1f9e89; fill-opacity: 0.8; stroke: #1f9e89; stroke-opacity: 0.8"/>
     <use xlink:href="#m5f4592d8a2" x="413.920364" y="51.927714" style="fill: #1f9e89; fill-opacity: 0.8; stroke: #1f9e89; stroke-opacity: 0.8"/>
     <use xlink:href="#m5f4592d8a2" x="420.612045" y="50.015729" style="fill: #1f9e89; fill-opacity: 0.8; stroke: #1f9e89; stroke-opacity: 0.8"/>
    </g>
   </g>
   <g id="PathCollection_5">
    <defs>
     <path id="mfd97a0fd46" d="M 0 3 
C 0.795609 3 1.55874 2.683901 2.12132 2.12132 
C 2.683901 1.55874 3 0.795609 3 0 
C 3 -0.795609 2.683901 -1.55874 2.12132 -2.12132 
C 1.55874 -2.683901 0.795609 -3 0 -3 
C -0.795609 -3 -1.55874 -2.683901 -2.12132 -2.12132 
C -2.683901 -1.55874 -3 -0.795609 -3 0 
C -3 0.795609 -2.683901 1.55874 -2.12132 2.12132 
C -1.55874 2.683901 -0.795609 3 0 3 
z
" style="stroke: #26828e; stroke-opacity: 0.8"/>
    </defs>
    <g clip-path="url(#pc163fa5cb3)">
     <use xlink:href="#mfd97a0fd46" x="65.952955" y="162.905996" style="fill: #26828e; fill-opacity: 0.8; stroke: #26828e; stroke-opacity: 0.8"/>
     <use xlink:href="#mfd97a0fd46" x="72.644636" y="162.543693" style="fill: #26828e; fill-opacity: 0.8; stroke: #26828e; stroke-opacity: 0.8"/>
     <use xlink:href="#mfd97a0fd46" x="79.336316" y="163.519221" style="fill: #26828e; fill-opacity: 0.8; stroke: #26828e; stroke-opacity: 0.8"/>
     <use xlink:href="#mfd97a0fd46" x="86.027997" y="159.839876" style="fill: #26828e; fill-opacity: 0.8; stroke: #26828e; stroke-opacity: 0.8"/>
     <use xlink:href="#mfd97a0fd46" x="92.719678" y="155.293011" style="fill: #26828e; fill-opacity: 0.8; stroke: #26828e; stroke-opacity: 0.8"/>
     <use xlink:href="#mfd97a0fd46" x="99.411359" y="151.238613" style="fill: #26828e; fill-opacity: 0.8; stroke: #26828e; stroke-opacity: 0.8"/>
     <use xlink:href="#mfd97a0fd46" x="106.10304" y="151.076377" style="fill: #26828e; fill-opacity: 0.8; stroke: #26828e; stroke-opacity: 0.8"/>
     <use xlink:href="#mfd97a0fd46" x="112.794721" y="146.316459" style="fill: #26828e; fill-opacity: 0.8; stroke: #26828e; stroke-opacity: 0.8"/>
     <use xlink:href="#mfd97a0fd46" x="119.486402" y="142.844362" style="fill: #26828e; fill-opacity: 0.8; stroke: #26828e; stroke-opacity: 0.8"/>
     <use xlink:href="#mfd97a0fd46" x="126.178083" y="137.649809" style="fill: #26828e; fill-opacity: 0.8; stroke: #26828e; stroke-opacity: 0.8"/>
     <use xlink:href="#mfd97a0fd46" x="132.869764" y="132.223662" style="fill: #26828e; fill-opacity: 0.8; stroke: #26828e; stroke-opacity: 0.8"/>
     <use xlink:href="#mfd97a0fd46" x="139.561445" y="131.177824" style="fill: #26828e; fill-opacity: 0.8; stroke: #26828e; stroke-opacity: 0.8"/>
     <use xlink:href="#mfd97a0fd46" x="146.253126" y="128.868075" style="fill: #26828e; fill-opacity: 0.8; stroke: #26828e; stroke-opacity: 0.8"/>
     <use xlink:href="#mfd97a0fd46" x="152.944807" y="127.546343" style="fill: #26828e; fill-opacity: 0.8; stroke: #26828e; stroke-opacity: 0.8"/>
     <use xlink:href="#mfd97a0fd46" x="159.636488" y="125.42619" style="fill: #26828e; fill-opacity: 0.8; stroke: #26828e; stroke-opacity: 0.8"/>
     <use xlink:href="#mfd97a0fd46" x="166.328169" y="125.65773" style="fill: #26828e; fill-opacity: 0.8; stroke: #26828e; stroke-opacity: 0.8"/>
     <use xlink:href="#mfd97a0fd46" x="173.01985" y="124.018505" style="fill: #26828e; fill-opacity: 0.8; stroke: #26828e; stroke-opacity: 0.8"/>
     <use xlink:href="#mfd97a0fd46" x="179.711531" y="122.457807" style="fill: #26828e; fill-opacity: 0.8; stroke: #26828e; stroke-opacity: 0.8"/>
     <use xlink:href="#mfd97a0fd46" x="186.403212" y="122.71019" style="fill: #26828e; fill-opacity: 0.8; stroke: #26828e; stroke-opacity: 0.8"/>
     <use xlink:href="#mfd97a0fd46" x="193.094893" y="119.175994" style="fill: #26828e; fill-opacity: 0.8; stroke: #26828e; stroke-opacity: 0.8"/>
     <use xlink:href="#mfd97a0fd46" x="199.786574" y="118.57868" style="fill: #26828e; fill-opacity: 0.8; stroke: #26828e; stroke-opacity: 0.8"/>
     <use xlink:href="#mfd97a0fd46" x="206.478255" y="116.538179" style="fill: #26828e; fill-opacity: 0.8; stroke: #26828e; stroke-opacity: 0.8"/>
     <use xlink:href="#mfd97a0fd46" x="213.169936" y="115.877015" style="fill: #26828e; fill-opacity: 0.8; stroke: #26828e; stroke-opacity: 0.8"/>
     <use xlink:href="#mfd97a0fd46" x="219.861617" y="119.795557" style="fill: #26828e; fill-opacity: 0.8; stroke: #26828e; stroke-opacity: 0.8"/>
     <use xlink:href="#mfd97a0fd46" x="226.553298" y="115.571877" style="fill: #26828e; fill-opacity: 0.8; stroke: #26828e; stroke-opacity: 0.8"/>
     <use xlink:href="#mfd97a0fd46" x="233.244979" y="111.169002" style="fill: #26828e; fill-opacity: 0.8; stroke: #26828e; stroke-opacity: 0.8"/>
     <use xlink:href="#mfd97a0fd46" x="239.93666" y="108.153058" style="fill: #26828e; fill-opacity: 0.8; stroke: #26828e; stroke-opacity: 0.8"/>
     <use xlink:href="#mfd97a0fd46" x="246.62834" y="107.093224" style="fill: #26828e; fill-opacity: 0.8; stroke: #26828e; stroke-opacity: 0.8"/>
     <use xlink:href="#mfd97a0fd46" x="253.320021" y="102.409411" style="fill: #26828e; fill-opacity: 0.8; stroke: #26828e; stroke-opacity: 0.8"/>
     <use xlink:href="#mfd97a0fd46" x="260.011702" y="99.855201" style="fill: #26828e; fill-opacity: 0.8; stroke: #26828e; stroke-opacity: 0.8"/>
     <use xlink:href="#mfd97a0fd46" x="266.703383" y="97.640033" style="fill: #26828e; fill-opacity: 0.8; stroke: #26828e; stroke-opacity: 0.8"/>
     <use xlink:href="#mfd97a0fd46" x="273.395064" y="101.285517" style="fill: #26828e; fill-opacity: 0.8; stroke: #26828e; stroke-opacity: 0.8"/>
     <use xlink:href="#mfd97a0fd46" x="280.086745" y="102.529364" style="fill: #26828e; fill-opacity: 0.8; stroke: #26828e; stroke-opacity: 0.8"/>
     <use xlink:href="#mfd97a0fd46" x="286.778426" y="97.960213" style="fill: #26828e; fill-opacity: 0.8; stroke: #26828e; stroke-opacity: 0.8"/>
     <use xlink:href="#mfd97a0fd46" x="293.470107" y="93.907418" style="fill: #26828e; fill-opacity: 0.8; stroke: #26828e; stroke-opacity: 0.8"/>
     <use xlink:href="#mfd97a0fd46" x="300.161788" y="90.321691" style="fill: #26828e; fill-opacity: 0.8; stroke: #26828e; stroke-opacity: 0.8"/>
     <use xlink:href="#mfd97a0fd46" x="306.853469" y="86.825977" style="fill: #26828e; fill-opacity: 0.8; stroke: #26828e; stroke-opacity: 0.8"/>
     <use xlink:href="#mfd97a0fd46" x="313.54515" y="83.628134" style="fill: #26828e; fill-opacity: 0.8; stroke: #26828e; stroke-opacity: 0.8"/>
     <use xlink:href="#mfd97a0fd46" x="320.236831" y="79.362534" style="fill: #26828e; fill-opacity: 0.8; stroke: #26828e; stroke-opacity: 0.8"/>
     <use xlink:href="#mfd97a0fd46" x="326.928512" y="73.375457" style="fill: #26828e; fill-opacity: 0.8; stroke: #26828e; stroke-opacity: 0.8"/>
     <use xlink:href="#mfd97a0fd46" x="333.620193" y="69.629641" style="fill: #26828e; fill-opacity: 0.8; stroke: #26828e; stroke-opacity: 0.8"/>
     <use xlink:href="#mfd97a0fd46" x="340.311874" y="68.6013" style="fill: #26828e; fill-opacity: 0.8; stroke: #26828e; stroke-opacity: 0.8"/>
     <use xlink:href="#mfd97a0fd46" x="347.003555" y="64.844763" style="fill: #26828e; fill-opacity: 0.8; stroke: #26828e; stroke-opacity: 0.8"/>
     <use xlink:href="#mfd97a0fd46" x="353.695236" y="61.900787" style="fill: #26828e; fill-opacity: 0.8; stroke: #26828e; stroke-opacity: 0.8"/>
     <use xlink:href="#mfd97a0fd46" x="360.386917" y="56.964359" style="fill: #26828e; fill-opacity: 0.8; stroke: #26828e; stroke-opacity: 0.8"/>
     <use xlink:href="#mfd97a0fd46" x="367.078598" y="53.904537" style="fill: #26828e; fill-opacity: 0.8; stroke: #26828e; stroke-opacity: 0.8"/>
     <use xlink:href="#mfd97a0fd46" x="373.770279" y="51.864061" style="fill: #26828e; fill-opacity: 0.8; stroke: #26828e; stroke-opacity: 0.8"/>
     <use xlink:href="#mfd97a0fd46" x="380.46196" y="48.407111" style="fill: #26828e; fill-opacity: 0.8; stroke: #26828e; stroke-opacity: 0.8"/>
     <use xlink:href="#mfd97a0fd46" x="387.153641" y="46.623286" style="fill: #26828e; fill-opacity: 0.8; stroke: #26828e; stroke-opacity: 0.8"/>
     <use xlink:href="#mfd97a0fd46" x="393.845322" y="47.493412" style="fill: #26828e; fill-opacity: 0.8; stroke: #26828e; stroke-opacity: 0.8"/>
     <use xlink:href="#mfd97a0fd46" x="400.537003" y="46.606976" style="fill: #26828e; fill-opacity: 0.8; stroke: #26828e; stroke-opacity: 0.8"/>
     <use xlink:href="#mfd97a0fd46" x="407.228684" y="45.14557" style="fill: #26828e; fill-opacity: 0.8; stroke: #26828e; stroke-opacity: 0.8"/>
     <use xlink:href="#mfd97a0fd46" x="413.920364" y="41.257232" style="fill: #26828e; fill-opacity: 0.8; stroke: #26828e; stroke-opacity: 0.8"/>
     <use xlink:href="#mfd97a0fd46" x="420.612045" y="39.536655" style="fill: #26828e; fill-opacity: 0.8; stroke: #26828e; stroke-opacity: 0.8"/>
    </g>
   </g>
   <g id="PathCollection_6">
    <defs>
     <path id="m62e53079c3" d="M 0 3 
C 0.795609 3 1.55874 2.683901 2.12132 2.12132 
C 2.683901 1.55874 3 0.795609 3 0 
C 3 -0.795609 2.683901 -1.55874 2.12132 -2.12132 
C 1.55874 -2.683901 0.795609 -3 0 -3 
C -0.795609 -3 -1.55874 -2.683901 -2.12132 -2.12132 
C -2.683901 -1.55874 -3 -0.795609 -3 0 
C -3 0.795609 -2.683901 1.55874 -2.12132 2.12132 
C -1.55874 2.683901 -0.795609 3 0 3 
z
" style="stroke: #6ece58; stroke-opacity: 0.8"/>
    </defs>
    <g clip-path="url(#pc163fa5cb3)">
     <use xlink:href="#m62e53079c3" x="65.952955" y="235.651065" style="fill: #6ece58; fill-opacity: 0.8; stroke: #6ece58; stroke-opacity: 0.8"/>
     <use xlink:href="#m62e53079c3" x="72.644636" y="234.959758" style="fill: #6ece58; fill-opacity: 0.8; stroke: #6ece58; stroke-opacity: 0.8"/>
     <use xlink:href="#m62e53079c3" x="79.336316" y="234.758672" style="fill: #6ece58; fill-opacity: 0.8; stroke: #6ece58; stroke-opacity: 0.8"/>
     <use xlink:href="#m62e53079c3" x="86.027997" y="235.333217" style="fill: #6ece58; fill-opacity: 0.8; stroke: #6ece58; stroke-opacity: 0.8"/>
     <use xlink:href="#m62e53079c3" x="92.719678" y="234.763966" style="fill: #6ece58; fill-opacity: 0.8; stroke: #6ece58; stroke-opacity: 0.8"/>
     <use xlink:href="#m62e53079c3" x="99.411359" y="234.288822" style="fill: #6ece58; fill-opacity: 0.8; stroke: #6ece58; stroke-opacity: 0.8"/>
     <use xlink:href="#m62e53079c3" x="106.10304" y="233.954378" style="fill: #6ece58; fill-opacity: 0.8; stroke: #6ece58; stroke-opacity: 0.8"/>
     <use xlink:href="#m62e53079c3" x="112.794721" y="233.721933" style="fill: #6ece58; fill-opacity: 0.8; stroke: #6ece58; stroke-opacity: 0.8"/>
     <use xlink:href="#m62e53079c3" x="119.486402" y="232.931043" style="fill: #6ece58; fill-opacity: 0.8; stroke: #6ece58; stroke-opacity: 0.8"/>
     <use xlink:href="#m62e53079c3" x="126.178083" y="231.732831" style="fill: #6ece58; fill-opacity: 0.8; stroke: #6ece58; stroke-opacity: 0.8"/>
     <use xlink:href="#m62e53079c3" x="132.869764" y="230.825694" style="fill: #6ece58; fill-opacity: 0.8; stroke: #6ece58; stroke-opacity: 0.8"/>
     <use xlink:href="#m62e53079c3" x="139.561445" y="229.491254" style="fill: #6ece58; fill-opacity: 0.8; stroke: #6ece58; stroke-opacity: 0.8"/>
     <use xlink:href="#m62e53079c3" x="146.253126" y="228.39492" style="fill: #6ece58; fill-opacity: 0.8; stroke: #6ece58; stroke-opacity: 0.8"/>
     <use xlink:href="#m62e53079c3" x="152.944807" y="226.831627" style="fill: #6ece58; fill-opacity: 0.8; stroke: #6ece58; stroke-opacity: 0.8"/>
     <use xlink:href="#m62e53079c3" x="159.636488" y="225.572812" style="fill: #6ece58; fill-opacity: 0.8; stroke: #6ece58; stroke-opacity: 0.8"/>
     <use xlink:href="#m62e53079c3" x="166.328169" y="225.346868" style="fill: #6ece58; fill-opacity: 0.8; stroke: #6ece58; stroke-opacity: 0.8"/>
     <use xlink:href="#m62e53079c3" x="173.01985" y="224.333707" style="fill: #6ece58; fill-opacity: 0.8; stroke: #6ece58; stroke-opacity: 0.8"/>
     <use xlink:href="#m62e53079c3" x="179.711531" y="223.484509" style="fill: #6ece58; fill-opacity: 0.8; stroke: #6ece58; stroke-opacity: 0.8"/>
     <use xlink:href="#m62e53079c3" x="186.403212" y="223.337529" style="fill: #6ece58; fill-opacity: 0.8; stroke: #6ece58; stroke-opacity: 0.8"/>
     <use xlink:href="#m62e53079c3" x="193.094893" y="221.860596" style="fill: #6ece58; fill-opacity: 0.8; stroke: #6ece58; stroke-opacity: 0.8"/>
     <use xlink:href="#m62e53079c3" x="199.786574" y="220.486724" style="fill: #6ece58; fill-opacity: 0.8; stroke: #6ece58; stroke-opacity: 0.8"/>
     <use xlink:href="#m62e53079c3" x="206.478255" y="222.05052" style="fill: #6ece58; fill-opacity: 0.8; stroke: #6ece58; stroke-opacity: 0.8"/>
     <use xlink:href="#m62e53079c3" x="213.169936" y="222.832383" style="fill: #6ece58; fill-opacity: 0.8; stroke: #6ece58; stroke-opacity: 0.8"/>
     <use xlink:href="#m62e53079c3" x="219.861617" y="223.990135" style="fill: #6ece58; fill-opacity: 0.8; stroke: #6ece58; stroke-opacity: 0.8"/>
     <use xlink:href="#m62e53079c3" x="226.553298" y="223.437396" style="fill: #6ece58; fill-opacity: 0.8; stroke: #6ece58; stroke-opacity: 0.8"/>
     <use xlink:href="#m62e53079c3" x="233.244979" y="222.8603" style="fill: #6ece58; fill-opacity: 0.8; stroke: #6ece58; stroke-opacity: 0.8"/>
     <use xlink:href="#m62e53079c3" x="239.93666" y="221.381451" style="fill: #6ece58; fill-opacity: 0.8; stroke: #6ece58; stroke-opacity: 0.8"/>
     <use xlink:href="#m62e53079c3" x="246.62834" y="220.782979" style="fill: #6ece58; fill-opacity: 0.8; stroke: #6ece58; stroke-opacity: 0.8"/>
     <use xlink:href="#m62e53079c3" x="253.320021" y="221.383586" style="fill: #6ece58; fill-opacity: 0.8; stroke: #6ece58; stroke-opacity: 0.8"/>
     <use xlink:href="#m62e53079c3" x="260.011702" y="221.74972" style="fill: #6ece58; fill-opacity: 0.8; stroke: #6ece58; stroke-opacity: 0.8"/>
     <use xlink:href="#m62e53079c3" x="266.703383" y="223.162361" style="fill: #6ece58; fill-opacity: 0.8; stroke: #6ece58; stroke-opacity: 0.8"/>
     <use xlink:href="#m62e53079c3" x="273.395064" y="222.778571" style="fill: #6ece58; fill-opacity: 0.8; stroke: #6ece58; stroke-opacity: 0.8"/>
     <use xlink:href="#m62e53079c3" x="280.086745" y="222.635452" style="fill: #6ece58; fill-opacity: 0.8; stroke: #6ece58; stroke-opacity: 0.8"/>
     <use xlink:href="#m62e53079c3" x="286.778426" y="221.45569" style="fill: #6ece58; fill-opacity: 0.8; stroke: #6ece58; stroke-opacity: 0.8"/>
     <use xlink:href="#m62e53079c3" x="293.470107" y="220.078472" style="fill: #6ece58; fill-opacity: 0.8; stroke: #6ece58; stroke-opacity: 0.8"/>
     <use xlink:href="#m62e53079c3" x="300.161788" y="219.57331" style="fill: #6ece58; fill-opacity: 0.8; stroke: #6ece58; stroke-opacity: 0.8"/>
     <use xlink:href="#m62e53079c3" x="306.853469" y="219.046424" style="fill: #6ece58; fill-opacity: 0.8; stroke: #6ece58; stroke-opacity: 0.8"/>
     <use xlink:href="#m62e53079c3" x="313.54515" y="217.939055" style="fill: #6ece58; fill-opacity: 0.8; stroke: #6ece58; stroke-opacity: 0.8"/>
     <use xlink:href="#m62e53079c3" x="320.236831" y="217.967743" style="fill: #6ece58; fill-opacity: 0.8; stroke: #6ece58; stroke-opacity: 0.8"/>
     <use xlink:href="#m62e53079c3" x="326.928512" y="218.790894" style="fill: #6ece58; fill-opacity: 0.8; stroke: #6ece58; stroke-opacity: 0.8"/>
     <use xlink:href="#m62e53079c3" x="333.620193" y="218.26366" style="fill: #6ece58; fill-opacity: 0.8; stroke: #6ece58; stroke-opacity: 0.8"/>
     <use xlink:href="#m62e53079c3" x="340.311874" y="218.608999" style="fill: #6ece58; fill-opacity: 0.8; stroke: #6ece58; stroke-opacity: 0.8"/>
     <use xlink:href="#m62e53079c3" x="347.003555" y="218.906629" style="fill: #6ece58; fill-opacity: 0.8; stroke: #6ece58; stroke-opacity: 0.8"/>
     <use xlink:href="#m62e53079c3" x="353.695236" y="218.278018" style="fill: #6ece58; fill-opacity: 0.8; stroke: #6ece58; stroke-opacity: 0.8"/>
     <use xlink:href="#m62e53079c3" x="360.386917" y="216.473224" style="fill: #6ece58; fill-opacity: 0.8; stroke: #6ece58; stroke-opacity: 0.8"/>
     <use xlink:href="#m62e53079c3" x="367.078598" y="215.154049" style="fill: #6ece58; fill-opacity: 0.8; stroke: #6ece58; stroke-opacity: 0.8"/>
     <use xlink:href="#m62e53079c3" x="373.770279" y="213.577664" style="fill: #6ece58; fill-opacity: 0.8; stroke: #6ece58; stroke-opacity: 0.8"/>
     <use xlink:href="#m62e53079c3" x="380.46196" y="211.385294" style="fill: #6ece58; fill-opacity: 0.8; stroke: #6ece58; stroke-opacity: 0.8"/>
     <use xlink:href="#m62e53079c3" x="387.153641" y="209.752575" style="fill: #6ece58; fill-opacity: 0.8; stroke: #6ece58; stroke-opacity: 0.8"/>
     <use xlink:href="#m62e53079c3" x="393.845322" y="210.630473" style="fill: #6ece58; fill-opacity: 0.8; stroke: #6ece58; stroke-opacity: 0.8"/>
     <use xlink:href="#m62e53079c3" x="400.537003" y="207.794616" style="fill: #6ece58; fill-opacity: 0.8; stroke: #6ece58; stroke-opacity: 0.8"/>
     <use xlink:href="#m62e53079c3" x="407.228684" y="205.997647" style="fill: #6ece58; fill-opacity: 0.8; stroke: #6ece58; stroke-opacity: 0.8"/>
     <use xlink:href="#m62e53079c3" x="413.920364" y="205.451448" style="fill: #6ece58; fill-opacity: 0.8; stroke: #6ece58; stroke-opacity: 0.8"/>
     <use xlink:href="#m62e53079c3" x="420.612045" y="204.295333" style="fill: #6ece58; fill-opacity: 0.8; stroke: #6ece58; stroke-opacity: 0.8"/>
    </g>
   </g>
   <g id="matplotlib.axis_1">
    <g id="xtick_1">
     <g id="line2d_1">
      <defs>
       <path id="m81f8bd370e" d="M 0 0 
L 0 3.5 
" style="stroke: #000000; stroke-width: 0.8"/>
      </defs>
      <g>
       <use xlink:href="#m81f8bd370e" x="65.952955" y="259.9664" style="stroke: #000000; stroke-width: 0.8"/>
      </g>
     </g>
     <g id="text_1">
      <!-- 1960 -->
      <g transform="translate(55.076392 274.525775) scale(0.1 -0.1)">
       <defs>
        <path id="Georgia-31" d="M 2528 0 
L 422 0 
L 422 222 
Q 516 228 714 248 
Q 913 269 988 291 
Q 1084 322 1136 392 
Q 1188 463 1188 603 
L 1188 2797 
L 409 2797 
L 409 3059 
L 581 3059 
Q 919 3059 1186 3184 
Q 1453 3309 1569 3453 
L 1828 3453 
Q 1819 3250 1809 2978 
Q 1800 2706 1800 2491 
L 1800 638 
Q 1800 528 1848 442 
Q 1897 356 1988 316 
Q 2069 281 2253 253 
Q 2438 225 2528 222 
L 2528 0 
z
" transform="scale(0.015625)"/>
        <path id="Georgia-39" d="M 3300 1613 
Q 3300 1069 3128 589 
Q 2956 109 2634 -253 
Q 2319 -609 1864 -845 
Q 1409 -1081 847 -1156 
L 791 -875 
L 1072 -825 
Q 1744 -613 2122 -172 
Q 2500 269 2609 947 
Q 2353 728 2098 626 
Q 1844 525 1525 525 
Q 1016 525 639 922 
Q 263 1319 263 1922 
Q 263 2569 698 3012 
Q 1134 3456 1775 3456 
Q 2472 3456 2886 2959 
Q 3300 2463 3300 1613 
z
M 2638 1650 
Q 2638 2381 2398 2795 
Q 2159 3209 1769 3209 
Q 1397 3209 1169 2889 
Q 941 2569 941 2006 
Q 941 1500 1173 1194 
Q 1406 888 1797 888 
Q 2041 888 2244 977 
Q 2447 1066 2622 1263 
Q 2622 1275 2626 1312 
Q 2631 1350 2631 1419 
Q 2631 1463 2634 1525 
Q 2638 1588 2638 1650 
z
" transform="scale(0.015625)"/>
        <path id="Georgia-36" d="M 3359 1441 
Q 3359 1116 3242 831 
Q 3125 547 2928 347 
Q 2700 119 2423 9 
Q 2147 -100 1847 -100 
Q 1500 -100 1219 28 
Q 938 156 741 391 
Q 541 628 431 972 
Q 322 1316 322 1744 
Q 322 2859 986 3625 
Q 1650 4391 2766 4544 
L 2822 4263 
L 2541 4213 
Q 1863 3994 1492 3531 
Q 1122 3069 1013 2409 
Q 1281 2644 1543 2741 
Q 1806 2838 2097 2838 
Q 2619 2838 2989 2438 
Q 3359 2038 3359 1441 
z
M 2681 1356 
Q 2681 1863 2448 2169 
Q 2216 2475 1825 2475 
Q 1591 2475 1389 2387 
Q 1188 2300 1000 2094 
Q 997 2056 990 1920 
Q 984 1784 984 1706 
Q 984 975 1223 561 
Q 1463 147 1853 147 
Q 2225 147 2453 470 
Q 2681 794 2681 1356 
z
" transform="scale(0.015625)"/>
        <path id="Georgia-30" d="M 3209 2919 
Q 3409 2678 3507 2354 
Q 3606 2031 3606 1678 
Q 3606 1253 3484 917 
Q 3363 581 3150 359 
Q 2931 131 2631 15 
Q 2331 -100 1963 -100 
Q 1559 -100 1243 34 
Q 928 169 731 403 
Q 525 647 423 973 
Q 322 1300 322 1678 
Q 322 2050 420 2362 
Q 519 2675 728 2928 
Q 928 3172 1243 3312 
Q 1559 3453 1966 3453 
Q 2394 3453 2700 3309 
Q 3006 3166 3209 2919 
z
M 2916 1678 
Q 2916 2422 2661 2831 
Q 2406 3241 1969 3241 
Q 1525 3241 1269 2831 
Q 1013 2422 1013 1678 
Q 1013 972 1258 542 
Q 1503 113 1963 113 
Q 2422 113 2669 542 
Q 2916 972 2916 1678 
z
" transform="scale(0.015625)"/>
       </defs>
       <use xlink:href="#Georgia-31"/>
       <use xlink:href="#Georgia-39" x="42.96875"/>
       <use xlink:href="#Georgia-36" x="99.560547"/>
       <use xlink:href="#Georgia-30" x="156.152344"/>
      </g>
     </g>
    </g>
    <g id="xtick_2">
     <g id="line2d_2">
      <g>
       <use xlink:href="#m81f8bd370e" x="132.869764" y="259.9664" style="stroke: #000000; stroke-width: 0.8"/>
      </g>
     </g>
     <g id="text_2">
      <!-- 1970 -->
      <g transform="translate(122.310389 274.525775) scale(0.1 -0.1)">
       <defs>
        <path id="Georgia-37" d="M 3216 3150 
L 988 -1141 
L 597 -1141 
L 2694 2828 
L 1466 2828 
Q 1194 2828 1041 2822 
Q 888 2816 759 2763 
Q 663 2722 586 2555 
Q 509 2388 469 2128 
L 278 2128 
L 278 3353 
L 3216 3353 
L 3216 3150 
z
" transform="scale(0.015625)"/>
       </defs>
       <use xlink:href="#Georgia-31"/>
       <use xlink:href="#Georgia-39" x="42.96875"/>
       <use xlink:href="#Georgia-37" x="99.560547"/>
       <use xlink:href="#Georgia-30" x="149.804688"/>
      </g>
     </g>
    </g>
    <g id="xtick_3">
     <g id="line2d_3">
      <g>
       <use xlink:href="#m81f8bd370e" x="199.786574" y="259.9664" style="stroke: #000000; stroke-width: 0.8"/>
      </g>
     </g>
     <g id="text_3">
      <!-- 1980 -->
      <g transform="translate(188.758449 274.525775) scale(0.1 -0.1)">
       <defs>
        <path id="Georgia-38" d="M 3491 1175 
Q 3491 650 3037 272 
Q 2584 -106 1847 -106 
Q 1156 -106 740 241 
Q 325 588 325 1134 
Q 325 1538 570 1808 
Q 816 2078 1297 2266 
Q 900 2488 703 2753 
Q 506 3019 506 3353 
Q 506 3863 939 4206 
Q 1372 4550 1975 4550 
Q 2578 4550 2951 4225 
Q 3325 3900 3325 3409 
Q 3325 3094 3119 2811 
Q 2913 2528 2513 2347 
Q 3031 2125 3261 1856 
Q 3491 1588 3491 1175 
z
M 2734 3444 
Q 2734 3825 2507 4064 
Q 2281 4303 1928 4303 
Q 1575 4303 1350 4073 
Q 1125 3844 1125 3503 
Q 1125 3175 1381 2947 
Q 1638 2719 2294 2459 
Q 2528 2609 2631 2856 
Q 2734 3103 2734 3444 
z
M 2866 1028 
Q 2866 1225 2781 1373 
Q 2697 1522 2538 1644 
Q 2384 1763 2111 1892 
Q 1838 2022 1519 2156 
Q 1219 1994 1078 1742 
Q 938 1491 938 1169 
Q 938 709 1208 426 
Q 1478 144 1928 144 
Q 2359 144 2612 394 
Q 2866 644 2866 1028 
z
" transform="scale(0.015625)"/>
       </defs>
       <use xlink:href="#Georgia-31"/>
       <use xlink:href="#Georgia-39" x="42.96875"/>
       <use xlink:href="#Georgia-38" x="99.560547"/>
       <use xlink:href="#Georgia-30" x="159.179688"/>
      </g>
     </g>
    </g>
    <g id="xtick_4">
     <g id="line2d_4">
      <g>
       <use xlink:href="#m81f8bd370e" x="266.703383" y="259.9664" style="stroke: #000000; stroke-width: 0.8"/>
      </g>
     </g>
     <g id="text_4">
      <!-- 1990 -->
      <g transform="translate(255.826821 274.525775) scale(0.1 -0.1)">
       <use xlink:href="#Georgia-31"/>
       <use xlink:href="#Georgia-39" x="42.96875"/>
       <use xlink:href="#Georgia-39" x="99.560547"/>
       <use xlink:href="#Georgia-30" x="156.152344"/>
      </g>
     </g>
    </g>
    <g id="xtick_5">
     <g id="line2d_5">
      <g>
       <use xlink:href="#m81f8bd370e" x="333.620193" y="259.9664" style="stroke: #000000; stroke-width: 0.8"/>
      </g>
     </g>
     <g id="text_5">
      <!-- 2000 -->
      <g transform="translate(321.620974 274.525775) scale(0.1 -0.1)">
       <defs>
        <path id="Georgia-32" d="M 3272 0 
L 344 0 
L 344 425 
Q 428 522 578 642 
Q 728 763 934 903 
Q 1059 988 1234 1088 
Q 1409 1188 1631 1306 
Q 1878 1438 2011 1538 
Q 2144 1638 2253 1784 
Q 2325 1881 2369 2026 
Q 2413 2172 2413 2441 
Q 2413 2831 2203 3014 
Q 1994 3197 1666 3197 
Q 1463 3197 1281 3117 
Q 1100 3038 1009 2897 
Q 1031 2797 1064 2659 
Q 1097 2522 1097 2391 
Q 1097 2272 998 2180 
Q 900 2088 706 2088 
Q 550 2088 465 2195 
Q 381 2303 381 2484 
Q 381 2653 475 2823 
Q 569 2994 744 3138 
Q 916 3278 1169 3365 
Q 1422 3453 1716 3453 
Q 2356 3453 2732 3167 
Q 3109 2881 3109 2403 
Q 3109 2175 3042 1987 
Q 2975 1800 2825 1656 
Q 2659 1497 2437 1383 
Q 2216 1269 1759 1066 
Q 1488 944 1253 811 
Q 1019 678 869 553 
L 3272 553 
L 3272 0 
z
" transform="scale(0.015625)"/>
       </defs>
       <use xlink:href="#Georgia-32"/>
       <use xlink:href="#Georgia-30" x="55.859375"/>
       <use xlink:href="#Georgia-30" x="117.236328"/>
       <use xlink:href="#Georgia-30" x="178.613281"/>
      </g>
     </g>
    </g>
    <g id="xtick_6">
     <g id="line2d_6">
      <g>
       <use xlink:href="#m81f8bd370e" x="400.537003" y="259.9664" style="stroke: #000000; stroke-width: 0.8"/>
      </g>
     </g>
     <g id="text_6">
      <!-- 2010 -->
      <g transform="translate(389.458096 274.525775) scale(0.1 -0.1)">
       <use xlink:href="#Georgia-32"/>
       <use xlink:href="#Georgia-30" x="55.859375"/>
       <use xlink:href="#Georgia-31" x="117.236328"/>
       <use xlink:href="#Georgia-30" x="160.205078"/>
      </g>
     </g>
    </g>
   </g>
   <g id="matplotlib.axis_2">
    <g id="ytick_1">
     <g id="line2d_7">
      <defs>
       <path id="m7255175ce9" d="M 0 0 
L -3.5 0 
" style="stroke: #000000; stroke-width: 0.8"/>
      </defs>
      <g>
       <use xlink:href="#m7255175ce9" x="48.22" y="253.701342" style="stroke: #000000; stroke-width: 0.8"/>
      </g>
     </g>
     <g id="text_7">
      <!-- 0 -->
      <g transform="translate(35.0825 257.48103) scale(0.1 -0.1)">
       <use xlink:href="#Georgia-30"/>
      </g>
     </g>
    </g>
    <g id="ytick_2">
     <g id="line2d_8">
      <g>
       <use xlink:href="#m7255175ce9" x="48.22" y="226.125345" style="stroke: #000000; stroke-width: 0.8"/>
      </g>
     </g>
     <g id="text_8">
      <!-- 5000 -->
      <g transform="translate(17.524688 229.905033) scale(0.1 -0.1)">
       <defs>
        <path id="Georgia-35" d="M 2634 1466 
Q 2841 1303 2977 1047 
Q 3113 791 3113 406 
Q 3113 -266 2653 -703 
Q 2194 -1141 1488 -1141 
Q 941 -1141 562 -881 
Q 184 -622 184 -278 
Q 184 -119 262 0 
Q 341 119 503 119 
Q 691 119 789 20 
Q 888 -78 888 -194 
Q 888 -294 853 -444 
Q 819 -594 800 -666 
Q 825 -688 881 -725 
Q 938 -763 1016 -797 
Q 1097 -831 1214 -857 
Q 1331 -884 1488 -884 
Q 1688 -884 1866 -803 
Q 2044 -722 2166 -563 
Q 2300 -388 2367 -164 
Q 2434 59 2434 403 
Q 2434 844 2189 1133 
Q 1944 1422 1544 1422 
Q 1294 1422 1076 1328 
Q 859 1234 688 1016 
L 478 1097 
L 744 3353 
L 2981 3353 
L 2981 2797 
L 997 2797 
L 834 1472 
Q 975 1572 1204 1670 
Q 1434 1769 1709 1769 
Q 1938 1769 2183 1698 
Q 2428 1628 2634 1466 
z
" transform="scale(0.015625)"/>
       </defs>
       <use xlink:href="#Georgia-35"/>
       <use xlink:href="#Georgia-30" x="52.832031"/>
       <use xlink:href="#Georgia-30" x="114.208984"/>
       <use xlink:href="#Georgia-30" x="175.585938"/>
      </g>
     </g>
    </g>
    <g id="ytick_3">
     <g id="line2d_9">
      <g>
       <use xlink:href="#m7255175ce9" x="48.22" y="198.549349" style="stroke: #000000; stroke-width: 0.8"/>
      </g>
     </g>
     <g id="text_9">
      <!-- 10000 -->
      <g transform="translate(12.373125 202.329036) scale(0.1 -0.1)">
       <use xlink:href="#Georgia-31"/>
       <use xlink:href="#Georgia-30" x="42.96875"/>
       <use xlink:href="#Georgia-30" x="104.345703"/>
       <use xlink:href="#Georgia-30" x="165.722656"/>
       <use xlink:href="#Georgia-30" x="227.099609"/>
      </g>
     </g>
    </g>
    <g id="ytick_4">
     <g id="line2d_10">
      <g>
       <use xlink:href="#m7255175ce9" x="48.22" y="170.973352" style="stroke: #000000; stroke-width: 0.8"/>
      </g>
     </g>
     <g id="text_10">
      <!-- 15000 -->
      <g transform="translate(13.227813 174.753039) scale(0.1 -0.1)">
       <use xlink:href="#Georgia-31"/>
       <use xlink:href="#Georgia-35" x="42.96875"/>
       <use xlink:href="#Georgia-30" x="95.800781"/>
       <use xlink:href="#Georgia-30" x="157.177734"/>
       <use xlink:href="#Georgia-30" x="218.554688"/>
      </g>
     </g>
    </g>
    <g id="ytick_5">
     <g id="line2d_11">
      <g>
       <use xlink:href="#m7255175ce9" x="48.22" y="143.397355" style="stroke: #000000; stroke-width: 0.8"/>
      </g>
     </g>
     <g id="text_11">
      <!-- 20000 -->
      <g transform="translate(11.084063 147.177042) scale(0.1 -0.1)">
       <use xlink:href="#Georgia-32"/>
       <use xlink:href="#Georgia-30" x="55.859375"/>
       <use xlink:href="#Georgia-30" x="117.236328"/>
       <use xlink:href="#Georgia-30" x="178.613281"/>
       <use xlink:href="#Georgia-30" x="239.990234"/>
      </g>
     </g>
    </g>
    <g id="ytick_6">
     <g id="line2d_12">
      <g>
       <use xlink:href="#m7255175ce9" x="48.22" y="115.821358" style="stroke: #000000; stroke-width: 0.8"/>
      </g>
     </g>
     <g id="text_12">
      <!-- 25000 -->
      <g transform="translate(11.93875 119.601045) scale(0.1 -0.1)">
       <use xlink:href="#Georgia-32"/>
       <use xlink:href="#Georgia-35" x="55.859375"/>
       <use xlink:href="#Georgia-30" x="108.691406"/>
       <use xlink:href="#Georgia-30" x="170.068359"/>
       <use xlink:href="#Georgia-30" x="231.445312"/>
      </g>
     </g>
    </g>
    <g id="ytick_7">
     <g id="line2d_13">
      <g>
       <use xlink:href="#m7255175ce9" x="48.22" y="88.245361" style="stroke: #000000; stroke-width: 0.8"/>
      </g>
     </g>
     <g id="text_13">
      <!-- 30000 -->
      <g transform="translate(11.152813 92.025049) scale(0.1 -0.1)">
       <defs>
        <path id="Georgia-33" d="M 1522 -1141 
Q 1228 -1141 984 -1067 
Q 741 -994 566 -869 
Q 391 -744 295 -581 
Q 200 -419 200 -247 
Q 200 -94 275 29 
Q 350 153 516 153 
Q 703 153 801 61 
Q 900 -31 900 -150 
Q 900 -250 867 -403 
Q 834 -556 816 -622 
Q 838 -650 895 -697 
Q 953 -744 1038 -781 
Q 1138 -828 1247 -856 
Q 1356 -884 1556 -884 
Q 1744 -884 1917 -821 
Q 2091 -759 2222 -622 
Q 2359 -478 2436 -286 
Q 2513 -94 2513 219 
Q 2513 388 2477 553 
Q 2441 719 2344 841 
Q 2247 963 2080 1030 
Q 1913 1097 1656 1097 
L 1247 1097 
L 1247 1456 
L 1519 1456 
Q 1950 1456 2140 1693 
Q 2331 1931 2331 2409 
Q 2331 2800 2147 2998 
Q 1963 3197 1625 3197 
Q 1463 3197 1358 3158 
Q 1253 3119 1188 3081 
Q 1109 3038 1059 2984 
Q 1009 2931 984 2906 
Q 1006 2806 1037 2661 
Q 1069 2516 1069 2384 
Q 1069 2269 970 2176 
Q 872 2084 681 2084 
Q 516 2084 439 2203 
Q 363 2322 363 2478 
Q 363 2641 453 2809 
Q 544 2978 722 3125 
Q 900 3272 1156 3362 
Q 1413 3453 1747 3453 
Q 2131 3453 2382 3339 
Q 2634 3225 2778 3063 
Q 2919 2903 2972 2728 
Q 3025 2553 3025 2428 
Q 3025 2272 2981 2114 
Q 2938 1956 2838 1822 
Q 2728 1675 2548 1554 
Q 2369 1434 2097 1359 
L 2097 1309 
Q 2272 1294 2470 1231 
Q 2669 1169 2828 1047 
Q 2994 919 3100 717 
Q 3206 516 3206 206 
Q 3206 -394 2725 -767 
Q 2244 -1141 1522 -1141 
z
" transform="scale(0.015625)"/>
       </defs>
       <use xlink:href="#Georgia-33"/>
       <use xlink:href="#Georgia-30" x="55.175781"/>
       <use xlink:href="#Georgia-30" x="116.552734"/>
       <use xlink:href="#Georgia-30" x="177.929688"/>
       <use xlink:href="#Georgia-30" x="239.306641"/>
      </g>
     </g>
    </g>
    <g id="ytick_8">
     <g id="line2d_14">
      <g>
       <use xlink:href="#m7255175ce9" x="48.22" y="60.669364" style="stroke: #000000; stroke-width: 0.8"/>
      </g>
     </g>
     <g id="text_14">
      <!-- 35000 -->
      <g transform="translate(12.0075 64.449052) scale(0.1 -0.1)">
       <use xlink:href="#Georgia-33"/>
       <use xlink:href="#Georgia-35" x="55.175781"/>
       <use xlink:href="#Georgia-30" x="108.007812"/>
       <use xlink:href="#Georgia-30" x="169.384766"/>
       <use xlink:href="#Georgia-30" x="230.761719"/>
      </g>
     </g>
    </g>
    <g id="ytick_9">
     <g id="line2d_15">
      <g>
       <use xlink:href="#m7255175ce9" x="48.22" y="33.093367" style="stroke: #000000; stroke-width: 0.8"/>
      </g>
     </g>
     <g id="text_15">
      <!-- 40000 -->
      <g transform="translate(11.02 36.873055) scale(0.1 -0.1)">
       <defs>
        <path id="Georgia-34" d="M 3388 281 
L 2753 281 
L 2753 -1141 
L 2153 -1141 
L 2153 281 
L 153 281 
L 153 763 
L 2344 3434 
L 2753 3434 
L 2753 691 
L 3388 691 
L 3388 281 
z
M 2153 691 
L 2153 2738 
L 466 691 
L 2153 691 
z
" transform="scale(0.015625)"/>
       </defs>
       <use xlink:href="#Georgia-34"/>
       <use xlink:href="#Georgia-30" x="56.494141"/>
       <use xlink:href="#Georgia-30" x="117.871094"/>
       <use xlink:href="#Georgia-30" x="179.248047"/>
       <use xlink:href="#Georgia-30" x="240.625"/>
      </g>
     </g>
    </g>
   </g>
   <g id="patch_3">
    <path d="M 48.22 259.9664 
L 48.22 29.04 
" style="fill: none; stroke: #000000; stroke-width: 0.8; stroke-linejoin: miter; stroke-linecap: square"/>
   </g>
   <g id="patch_4">
    <path d="M 48.22 259.9664 
L 438.345 259.9664 
" style="fill: none; stroke: #000000; stroke-width: 0.8; stroke-linejoin: miter; stroke-linecap: square"/>
   </g>
   <g id="text_16">
    <!-- GDP per capita by continent, 2015 USD -->
    <g transform="translate(103.93875 23.04) scale(0.16 -0.16)">
     <defs>
      <path id="Georgia-47" d="M 4597 1772 
Q 4522 1763 4395 1742 
Q 4269 1722 4191 1684 
Q 4097 1638 4058 1552 
Q 4019 1466 4019 1350 
L 4019 1006 
Q 4019 631 4023 500 
Q 4028 369 4034 284 
Q 3619 97 3206 -3 
Q 2794 -103 2397 -103 
Q 1972 -103 1578 56 
Q 1184 216 891 509 
Q 594 806 419 1231 
Q 244 1656 244 2181 
Q 244 2688 411 3120 
Q 578 3553 884 3872 
Q 1181 4184 1592 4357 
Q 2003 4531 2472 4531 
Q 2847 4531 3125 4440 
Q 3403 4350 3616 4222 
L 3744 4434 
L 3994 4434 
L 4022 2884 
L 3766 2884 
Q 3700 3141 3603 3389 
Q 3506 3638 3353 3834 
Q 3200 4031 2979 4148 
Q 2759 4266 2453 4266 
Q 2119 4266 1856 4130 
Q 1594 3994 1400 3725 
Q 1209 3466 1106 3078 
Q 1003 2691 1003 2213 
Q 1003 1791 1104 1417 
Q 1206 1044 1400 772 
Q 1594 494 1884 334 
Q 2175 175 2544 175 
Q 2819 175 3045 259 
Q 3272 344 3366 438 
Q 3391 600 3392 765 
Q 3394 931 3394 1047 
L 3394 1291 
Q 3394 1422 3358 1523 
Q 3322 1625 3209 1672 
Q 3106 1719 2929 1742 
Q 2753 1766 2653 1772 
L 2653 2000 
L 4597 2000 
L 4597 1772 
z
" transform="scale(0.015625)"/>
      <path id="Georgia-44" d="M 4553 2191 
Q 4553 1625 4340 1209 
Q 4128 794 3788 528 
Q 3444 263 3016 131 
Q 2588 0 2131 0 
L 294 0 
L 294 222 
Q 384 222 529 239 
Q 675 256 722 278 
Q 816 319 858 398 
Q 900 478 900 591 
L 900 3791 
Q 900 3897 864 3981 
Q 828 4066 722 4116 
Q 625 4163 512 4184 
Q 400 4206 319 4213 
L 319 4434 
L 2256 4434 
Q 2656 4434 3043 4311 
Q 3431 4188 3719 3978 
Q 4109 3700 4331 3250 
Q 4553 2800 4553 2191 
z
M 3788 2194 
Q 3788 2641 3669 3002 
Q 3550 3363 3322 3631 
Q 3106 3888 2792 4034 
Q 2478 4181 2094 4181 
Q 1966 4181 1805 4176 
Q 1644 4172 1566 4169 
L 1566 759 
Q 1566 475 1731 365 
Q 1897 256 2241 256 
Q 2638 256 2934 397 
Q 3231 538 3416 788 
Q 3609 1050 3698 1395 
Q 3788 1741 3788 2194 
z
" transform="scale(0.015625)"/>
      <path id="Georgia-50" d="M 3700 3341 
Q 3700 2994 3564 2726 
Q 3428 2459 3188 2284 
Q 2950 2109 2665 2028 
Q 2381 1947 2063 1947 
L 1566 1947 
L 1566 603 
Q 1566 494 1602 411 
Q 1638 328 1750 284 
Q 1806 263 1948 244 
Q 2091 225 2209 222 
L 2209 0 
L 306 0 
L 306 222 
Q 381 228 523 243 
Q 666 259 722 284 
Q 816 325 858 403 
Q 900 481 900 603 
L 900 3803 
Q 900 3913 869 4000 
Q 838 4088 722 4131 
Q 603 4172 486 4189 
Q 369 4206 284 4213 
L 284 4434 
L 2309 4434 
Q 2928 4434 3314 4136 
Q 3700 3838 3700 3341 
z
M 2750 2584 
Q 2856 2734 2890 2895 
Q 2925 3056 2925 3184 
Q 2925 3363 2883 3547 
Q 2841 3731 2738 3869 
Q 2628 4016 2450 4097 
Q 2272 4178 2006 4178 
L 1566 4178 
L 1566 2219 
L 1884 2219 
Q 2222 2219 2433 2323 
Q 2644 2428 2750 2584 
z
" transform="scale(0.015625)"/>
      <path id="Georgia-20" transform="scale(0.015625)"/>
      <path id="Georgia-70" d="M 3041 2716 
Q 3225 2497 3326 2208 
Q 3428 1919 3428 1547 
Q 3428 1181 3306 879 
Q 3184 578 2984 366 
Q 2775 150 2519 34 
Q 2263 -81 1975 -81 
Q 1697 -81 1519 -18 
Q 1341 44 1228 128 
L 1203 128 
L 1203 -797 
Q 1203 -909 1247 -984 
Q 1291 -1059 1381 -1094 
Q 1456 -1122 1595 -1148 
Q 1734 -1175 1825 -1178 
L 1825 -1388 
L 103 -1388 
L 103 -1178 
Q 200 -1172 290 -1162 
Q 381 -1153 453 -1131 
Q 547 -1100 584 -1022 
Q 622 -944 622 -838 
L 622 2441 
Q 622 2534 575 2621 
Q 528 2709 453 2763 
Q 397 2800 297 2820 
Q 197 2841 103 2847 
L 103 3050 
L 1153 3119 
L 1197 3081 
L 1197 2734 
L 1222 2728 
Q 1384 2916 1625 3041 
Q 1866 3166 2103 3166 
Q 2391 3166 2630 3044 
Q 2869 2922 3041 2716 
z
M 2531 500 
Q 2656 694 2715 950 
Q 2775 1206 2775 1522 
Q 2775 1753 2725 1993 
Q 2675 2234 2569 2413 
Q 2463 2594 2291 2706 
Q 2119 2819 1878 2819 
Q 1647 2819 1484 2717 
Q 1322 2616 1203 2475 
L 1203 653 
Q 1231 569 1295 478 
Q 1359 388 1438 322 
Q 1534 244 1646 195 
Q 1759 147 1922 147 
Q 2097 147 2259 239 
Q 2422 331 2531 500 
z
" transform="scale(0.015625)"/>
      <path id="Georgia-65" d="M 2963 725 
Q 2769 356 2444 137 
Q 2119 -81 1697 -81 
Q 1325 -81 1045 50 
Q 766 181 584 406 
Q 403 631 314 931 
Q 225 1231 225 1566 
Q 225 1866 320 2155 
Q 416 2444 600 2675 
Q 778 2897 1042 3033 
Q 1306 3169 1634 3169 
Q 1972 3169 2212 3062 
Q 2453 2956 2603 2772 
Q 2747 2597 2817 2359 
Q 2888 2122 2888 1844 
L 2888 1638 
L 847 1638 
Q 847 1334 905 1087 
Q 963 841 1088 653 
Q 1209 472 1406 367 
Q 1603 263 1875 263 
Q 2153 263 2354 392 
Q 2556 522 2744 859 
L 2963 725 
z
M 2272 1900 
Q 2272 2075 2242 2275 
Q 2213 2475 2147 2609 
Q 2075 2753 1950 2843 
Q 1825 2934 1628 2934 
Q 1300 2934 1083 2661 
Q 866 2388 847 1900 
L 2272 1900 
z
" transform="scale(0.015625)"/>
      <path id="Georgia-72" d="M 2584 2684 
Q 2584 2525 2506 2401 
Q 2428 2278 2266 2278 
Q 2091 2278 1998 2368 
Q 1906 2459 1906 2569 
Q 1906 2638 1917 2694 
Q 1928 2750 1938 2806 
Q 1791 2806 1594 2687 
Q 1397 2569 1259 2350 
L 1259 556 
Q 1259 447 1301 378 
Q 1344 309 1434 275 
Q 1513 244 1636 228 
Q 1759 213 1850 206 
L 1850 0 
L 225 0 
L 225 206 
Q 297 213 373 219 
Q 450 225 506 244 
Q 594 272 636 342 
Q 678 413 678 525 
L 678 2428 
Q 678 2525 633 2619 
Q 588 2713 506 2769 
Q 447 2806 365 2823 
Q 284 2841 191 2847 
L 191 3050 
L 1216 3119 
L 1259 3075 
L 1259 2641 
L 1275 2641 
Q 1469 2894 1706 3025 
Q 1944 3156 2141 3156 
Q 2338 3156 2461 3028 
Q 2584 2900 2584 2684 
z
" transform="scale(0.015625)"/>
      <path id="Georgia-63" d="M 1650 -81 
Q 981 -81 603 362 
Q 225 806 225 1553 
Q 225 1878 326 2161 
Q 428 2444 622 2675 
Q 806 2897 1084 3033 
Q 1363 3169 1691 3169 
Q 2144 3169 2428 2951 
Q 2713 2734 2713 2359 
Q 2713 2203 2638 2083 
Q 2563 1963 2391 1963 
Q 2206 1963 2104 2056 
Q 2003 2150 2003 2266 
Q 2003 2406 2040 2554 
Q 2078 2703 2084 2772 
Q 2028 2869 1917 2901 
Q 1806 2934 1678 2934 
Q 1528 2934 1392 2870 
Q 1256 2806 1128 2634 
Q 1013 2478 941 2212 
Q 869 1947 869 1578 
Q 869 997 1126 630 
Q 1384 263 1803 263 
Q 2106 263 2311 409 
Q 2516 556 2691 850 
L 2891 719 
Q 2684 350 2346 134 
Q 2009 -81 1650 -81 
z
" transform="scale(0.015625)"/>
      <path id="Georgia-61" d="M 3144 56 
Q 2997 3 2886 -30 
Q 2775 -63 2634 -63 
Q 2391 -63 2245 51 
Q 2100 166 2059 384 
L 2041 384 
Q 1838 159 1605 40 
Q 1372 -78 1044 -78 
Q 697 -78 473 134 
Q 250 347 250 691 
Q 250 869 300 1009 
Q 350 1150 450 1263 
Q 528 1356 656 1429 
Q 784 1503 897 1547 
Q 1038 1600 1467 1744 
Q 1897 1888 2047 1969 
L 2047 2278 
Q 2047 2319 2030 2434 
Q 2013 2550 1956 2653 
Q 1894 2769 1780 2855 
Q 1666 2941 1456 2941 
Q 1313 2941 1189 2892 
Q 1066 2844 1016 2791 
Q 1016 2728 1045 2606 
Q 1075 2484 1075 2381 
Q 1075 2272 976 2181 
Q 878 2091 703 2091 
Q 547 2091 473 2202 
Q 400 2313 400 2450 
Q 400 2594 501 2725 
Q 603 2856 766 2959 
Q 906 3047 1106 3108 
Q 1306 3169 1497 3169 
Q 1759 3169 1954 3133 
Q 2150 3097 2309 2978 
Q 2469 2863 2551 2664 
Q 2634 2466 2634 2153 
Q 2634 1706 2625 1361 
Q 2616 1016 2616 606 
Q 2616 484 2658 412 
Q 2700 341 2788 291 
Q 2834 263 2936 259 
Q 3038 256 3144 256 
L 3144 56 
z
M 2053 1706 
Q 1788 1628 1588 1553 
Q 1388 1478 1216 1366 
Q 1059 1259 968 1114 
Q 878 969 878 769 
Q 878 509 1014 387 
Q 1150 266 1359 266 
Q 1581 266 1750 373 
Q 1919 481 2034 628 
L 2053 1706 
z
" transform="scale(0.015625)"/>
      <path id="Georgia-69" d="M 1722 0 
L 231 0 
L 231 206 
Q 303 213 379 219 
Q 456 225 513 244 
Q 600 272 642 342 
Q 684 413 684 525 
L 684 2428 
Q 684 2528 639 2611 
Q 594 2694 513 2750 
Q 453 2788 340 2814 
Q 228 2841 134 2847 
L 134 3050 
L 1222 3119 
L 1266 3075 
L 1266 563 
Q 1266 453 1308 381 
Q 1350 309 1441 275 
Q 1509 247 1575 230 
Q 1641 213 1722 206 
L 1722 0 
z
M 1328 4334 
Q 1328 4156 1211 4023 
Q 1094 3891 922 3891 
Q 763 3891 645 4017 
Q 528 4144 528 4306 
Q 528 4478 645 4606 
Q 763 4734 922 4734 
Q 1100 4734 1214 4614 
Q 1328 4494 1328 4334 
z
" transform="scale(0.015625)"/>
      <path id="Georgia-74" d="M 2128 134 
Q 1925 50 1744 -8 
Q 1563 -66 1300 -66 
Q 913 -66 755 129 
Q 597 325 597 681 
L 597 2769 
L 41 2769 
L 41 3069 
L 609 3069 
L 609 4028 
L 1178 4028 
L 1178 3069 
L 2063 3069 
L 2063 2769 
L 1184 2769 
L 1184 1047 
Q 1184 853 1198 723 
Q 1213 594 1266 497 
Q 1316 406 1416 359 
Q 1516 313 1684 313 
Q 1763 313 1914 327 
Q 2066 341 2128 363 
L 2128 134 
z
" transform="scale(0.015625)"/>
      <path id="Georgia-62" d="M 3353 1544 
Q 3353 850 2915 378 
Q 2478 -94 1900 -94 
Q 1647 -94 1401 -15 
Q 1156 63 941 194 
L 709 -166 
L 516 -122 
Q 531 109 537 434 
Q 544 759 544 1063 
L 544 4113 
Q 544 4219 495 4325 
Q 447 4431 372 4478 
Q 313 4519 173 4539 
Q 34 4559 -50 4566 
L -50 4766 
L 1081 4838 
L 1125 4791 
L 1125 2759 
L 1147 2753 
Q 1341 2959 1570 3062 
Q 1800 3166 2022 3166 
Q 2591 3166 2972 2716 
Q 3353 2266 3353 1544 
z
M 2700 1522 
Q 2700 1753 2650 1993 
Q 2600 2234 2494 2413 
Q 2388 2594 2216 2706 
Q 2044 2819 1803 2819 
Q 1584 2819 1420 2733 
Q 1256 2647 1125 2500 
L 1125 706 
Q 1144 631 1198 531 
Q 1253 431 1347 341 
Q 1441 253 1559 198 
Q 1678 144 1850 144 
Q 2231 144 2465 512 
Q 2700 881 2700 1522 
z
" transform="scale(0.015625)"/>
      <path id="Georgia-79" d="M -9 -1006 
Q -9 -850 77 -751 
Q 163 -653 291 -653 
Q 391 -653 462 -690 
Q 534 -728 591 -788 
Q 638 -834 691 -915 
Q 744 -997 775 -1050 
Q 931 -966 1148 -609 
Q 1366 -253 1463 16 
Q 1166 756 925 1340 
Q 684 1925 422 2550 
Q 363 2694 222 2773 
Q 81 2853 -59 2875 
L -59 3081 
L 1347 3081 
L 1347 2863 
Q 1253 2859 1122 2823 
Q 991 2788 991 2741 
Q 991 2722 1005 2678 
Q 1019 2634 1038 2588 
Q 1156 2278 1400 1695 
Q 1644 1113 1778 763 
Q 1919 1097 2070 1455 
Q 2222 1813 2409 2300 
Q 2431 2359 2472 2464 
Q 2513 2569 2513 2644 
Q 2513 2725 2370 2795 
Q 2228 2866 2100 2881 
L 2100 3081 
L 3244 3081 
L 3244 2888 
Q 3150 2872 2997 2780 
Q 2844 2688 2769 2519 
Q 2397 1656 2108 947 
Q 1819 238 1669 -97 
Q 1472 -534 1317 -779 
Q 1163 -1025 1016 -1166 
Q 872 -1297 755 -1342 
Q 638 -1388 513 -1388 
Q 269 -1388 130 -1272 
Q -9 -1156 -9 -1006 
z
" transform="scale(0.015625)"/>
      <path id="Georgia-6f" d="M 3228 1572 
Q 3228 1247 3125 933 
Q 3022 619 2831 400 
Q 2616 150 2331 28 
Q 2047 -94 1694 -94 
Q 1400 -94 1134 17 
Q 869 128 663 341 
Q 459 550 339 851 
Q 219 1153 219 1528 
Q 219 2250 639 2709 
Q 1059 3169 1741 3169 
Q 2388 3169 2808 2733 
Q 3228 2297 3228 1572 
z
M 2581 1566 
Q 2581 1800 2534 2061 
Q 2488 2322 2394 2503 
Q 2294 2697 2131 2814 
Q 1969 2931 1734 2931 
Q 1494 2931 1323 2812 
Q 1153 2694 1047 2488 
Q 947 2297 906 2053 
Q 866 1809 866 1581 
Q 866 1281 914 1026 
Q 963 772 1069 572 
Q 1175 372 1336 258 
Q 1497 144 1734 144 
Q 2125 144 2353 522 
Q 2581 900 2581 1566 
z
" transform="scale(0.015625)"/>
      <path id="Georgia-6e" d="M 3628 0 
L 2119 0 
L 2119 206 
Q 2191 213 2277 219 
Q 2363 225 2419 244 
Q 2506 272 2548 342 
Q 2591 413 2591 525 
L 2591 2109 
Q 2591 2438 2436 2616 
Q 2281 2794 2059 2794 
Q 1894 2794 1756 2742 
Q 1619 2691 1513 2616 
Q 1409 2544 1348 2461 
Q 1288 2378 1259 2328 
L 1259 556 
Q 1259 450 1303 381 
Q 1347 313 1434 275 
Q 1500 244 1576 228 
Q 1653 213 1734 206 
L 1734 0 
L 225 0 
L 225 206 
Q 297 213 373 219 
Q 450 225 506 244 
Q 594 272 636 342 
Q 678 413 678 525 
L 678 2428 
Q 678 2534 633 2623 
Q 588 2713 506 2769 
Q 447 2806 365 2823 
Q 284 2841 191 2847 
L 191 3050 
L 1216 3119 
L 1259 3075 
L 1259 2641 
L 1275 2641 
Q 1350 2716 1462 2820 
Q 1575 2925 1675 2991 
Q 1791 3066 1950 3116 
Q 2109 3166 2309 3166 
Q 2753 3166 2967 2889 
Q 3181 2613 3181 2153 
L 3181 550 
Q 3181 441 3218 373 
Q 3256 306 3347 269 
Q 3422 238 3476 225 
Q 3531 213 3628 206 
L 3628 0 
z
" transform="scale(0.015625)"/>
      <path id="Georgia-2c" d="M 1341 109 
Q 1341 -116 1239 -316 
Q 1138 -516 1006 -659 
Q 872 -809 722 -925 
Q 572 -1041 447 -1106 
L 303 -897 
Q 453 -803 572 -709 
Q 691 -616 766 -522 
Q 859 -413 925 -284 
Q 991 -156 1009 6 
L 850 6 
Q 641 6 523 115 
Q 406 225 406 409 
Q 406 541 512 664 
Q 619 788 803 788 
Q 1072 788 1206 608 
Q 1341 428 1341 109 
z
" transform="scale(0.015625)"/>
      <path id="Georgia-55" d="M 4791 4213 
Q 4703 4209 4534 4175 
Q 4366 4141 4259 4072 
Q 4153 4000 4112 3775 
Q 4072 3550 4072 3225 
L 4072 1297 
Q 4072 928 3919 656 
Q 3766 384 3516 209 
Q 3269 41 2995 -32 
Q 2722 -106 2472 -106 
Q 2072 -106 1759 -1 
Q 1447 103 1234 281 
Q 1025 459 919 689 
Q 813 919 813 1169 
L 813 3791 
Q 813 3900 777 3973 
Q 741 4047 631 4109 
Q 553 4153 431 4179 
Q 309 4206 231 4213 
L 231 4434 
L 2078 4434 
L 2078 4213 
Q 1991 4209 1858 4184 
Q 1725 4159 1663 4138 
Q 1556 4100 1520 4012 
Q 1484 3925 1484 3822 
L 1484 1372 
Q 1484 1194 1523 998 
Q 1563 803 1678 634 
Q 1800 463 2009 353 
Q 2219 244 2584 244 
Q 2928 244 3161 353 
Q 3394 463 3528 641 
Q 3656 809 3709 993 
Q 3763 1178 3763 1366 
L 3763 3184 
Q 3763 3531 3713 3751 
Q 3663 3972 3566 4041 
Q 3456 4119 3267 4162 
Q 3078 4206 2978 4213 
L 2978 4434 
L 4791 4434 
L 4791 4213 
z
" transform="scale(0.015625)"/>
      <path id="Georgia-53" d="M 3066 2034 
Q 3206 1878 3273 1692 
Q 3341 1506 3341 1259 
Q 3341 672 2906 290 
Q 2472 -91 1828 -91 
Q 1531 -91 1234 1 
Q 938 94 722 225 
L 588 -3 
L 338 -3 
L 294 1516 
L 547 1516 
Q 625 1234 729 1007 
Q 834 781 1006 584 
Q 1169 400 1386 290 
Q 1603 181 1891 181 
Q 2106 181 2267 237 
Q 2428 294 2528 397 
Q 2628 500 2676 639 
Q 2725 778 2725 959 
Q 2725 1225 2575 1454 
Q 2425 1684 2128 1803 
Q 1925 1884 1662 1982 
Q 1400 2081 1209 2169 
Q 834 2338 626 2611 
Q 419 2884 419 3325 
Q 419 3578 522 3797 
Q 625 4016 816 4188 
Q 997 4350 1244 4442 
Q 1491 4534 1759 4534 
Q 2066 4534 2308 4440 
Q 2550 4347 2750 4222 
L 2878 4434 
L 3128 4434 
L 3153 2963 
L 2900 2963 
Q 2831 3216 2745 3447 
Q 2659 3678 2522 3866 
Q 2388 4047 2194 4155 
Q 2000 4263 1719 4263 
Q 1422 4263 1212 4072 
Q 1003 3881 1003 3606 
Q 1003 3319 1137 3130 
Q 1272 2941 1528 2819 
Q 1756 2709 1976 2629 
Q 2197 2550 2403 2459 
Q 2591 2378 2764 2275 
Q 2938 2172 3066 2034 
z
" transform="scale(0.015625)"/>
     </defs>
     <use xlink:href="#Georgia-47"/>
     <use xlink:href="#Georgia-44" x="72.509766"/>
     <use xlink:href="#Georgia-50" x="147.412109"/>
     <use xlink:href="#Georgia-20" x="208.398438"/>
     <use xlink:href="#Georgia-70" x="232.519531"/>
     <use xlink:href="#Georgia-65" x="289.648438"/>
     <use xlink:href="#Georgia-72" x="337.988281"/>
     <use xlink:href="#Georgia-20" x="378.955078"/>
     <use xlink:href="#Georgia-63" x="403.076172"/>
     <use xlink:href="#Georgia-61" x="448.486328"/>
     <use xlink:href="#Georgia-70" x="498.876953"/>
     <use xlink:href="#Georgia-69" x="556.005859"/>
     <use xlink:href="#Georgia-74" x="585.302734"/>
     <use xlink:href="#Georgia-61" x="619.824219"/>
     <use xlink:href="#Georgia-20" x="670.214844"/>
     <use xlink:href="#Georgia-62" x="694.335938"/>
     <use xlink:href="#Georgia-79" x="750.341797"/>
     <use xlink:href="#Georgia-20" x="799.560547"/>
     <use xlink:href="#Georgia-63" x="823.681641"/>
     <use xlink:href="#Georgia-6f" x="869.091797"/>
     <use xlink:href="#Georgia-6e" x="922.998047"/>
     <use xlink:href="#Georgia-74" x="982.080078"/>
     <use xlink:href="#Georgia-69" x="1016.601562"/>
     <use xlink:href="#Georgia-6e" x="1045.898438"/>
     <use xlink:href="#Georgia-65" x="1104.980469"/>
     <use xlink:href="#Georgia-6e" x="1153.320312"/>
     <use xlink:href="#Georgia-74" x="1212.402344"/>
     <use xlink:href="#Georgia-2c" x="1246.923828"/>
     <use xlink:href="#Georgia-20" x="1273.876953"/>
     <use xlink:href="#Georgia-32" x="1297.998047"/>
     <use xlink:href="#Georgia-30" x="1353.857422"/>
     <use xlink:href="#Georgia-31" x="1415.234375"/>
     <use xlink:href="#Georgia-35" x="1458.203125"/>
     <use xlink:href="#Georgia-20" x="1511.035156"/>
     <use xlink:href="#Georgia-55" x="1535.15625"/>
     <use xlink:href="#Georgia-53" x="1610.791016"/>
     <use xlink:href="#Georgia-44" x="1666.894531"/>
    </g>
   </g>
   <g id="legend_1">
    <g id="PathCollection_7">
     <g>
      <use xlink:href="#mdd21008d56" x="66.514531" y="300.722445" style="fill: #3e4989; fill-opacity: 0.8; stroke: #3e4989; stroke-opacity: 0.8"/>
     </g>
    </g>
    <g id="text_17">
     <!-- Africa -->
     <g transform="translate(84.514531 303.347445) scale(0.1 -0.1)">
      <defs>
       <path id="Georgia-41" d="M 4441 0 
L 2594 0 
L 2594 222 
Q 2838 238 2998 284 
Q 3159 331 3159 400 
Q 3159 428 3153 468 
Q 3147 509 3134 541 
L 2766 1534 
L 1213 1534 
Q 1125 1316 1070 1153 
Q 1016 991 972 853 
Q 931 719 915 634 
Q 900 550 900 497 
Q 900 372 1097 303 
Q 1294 234 1541 222 
L 1541 0 
L -128 0 
L -128 222 
Q -47 228 75 258 
Q 197 288 275 338 
Q 400 422 469 514 
Q 538 606 603 769 
Q 938 1603 1341 2643 
Q 1744 3684 2059 4497 
L 2309 4497 
L 3788 672 
Q 3834 550 3893 475 
Q 3953 400 4059 328 
Q 4131 284 4247 254 
Q 4363 225 4441 222 
L 4441 0 
z
M 2653 1813 
L 1981 3531 
L 1322 1813 
L 2653 1813 
z
" transform="scale(0.015625)"/>
       <path id="Georgia-66" d="M 2519 4466 
Q 2519 4325 2444 4228 
Q 2369 4131 2216 4131 
Q 2119 4131 2045 4172 
Q 1972 4213 1909 4281 
Q 1847 4350 1794 4437 
Q 1741 4525 1703 4578 
Q 1494 4569 1380 4286 
Q 1266 4003 1266 3384 
L 1266 3069 
L 2059 3069 
L 2059 2769 
L 1266 2769 
L 1266 556 
Q 1266 447 1308 378 
Q 1350 309 1441 275 
Q 1516 247 1641 230 
Q 1766 213 1856 206 
L 1856 0 
L 231 0 
L 231 206 
Q 303 213 379 219 
Q 456 225 513 244 
Q 600 272 642 342 
Q 684 413 684 525 
L 684 2769 
L 75 2769 
L 75 3069 
L 684 3069 
L 684 3266 
Q 684 3969 1048 4405 
Q 1413 4841 1959 4841 
Q 2238 4841 2378 4731 
Q 2519 4622 2519 4466 
z
" transform="scale(0.015625)"/>
      </defs>
      <use xlink:href="#Georgia-41"/>
      <use xlink:href="#Georgia-66" x="67.089844"/>
      <use xlink:href="#Georgia-72" x="99.609375"/>
      <use xlink:href="#Georgia-69" x="140.576172"/>
      <use xlink:href="#Georgia-63" x="169.873047"/>
      <use xlink:href="#Georgia-61" x="215.283203"/>
     </g>
    </g>
    <g id="PathCollection_8">
     <g>
      <use xlink:href="#m8d3d78cb32" x="66.514531" y="315.45057" style="fill: #482878; fill-opacity: 0.8; stroke: #482878; stroke-opacity: 0.8"/>
     </g>
    </g>
    <g id="text_18">
     <!-- Asia -->
     <g transform="translate(84.514531 318.07557) scale(0.1 -0.1)">
      <defs>
       <path id="Georgia-73" d="M 2259 1509 
Q 2388 1397 2456 1250 
Q 2525 1103 2525 891 
Q 2525 463 2204 191 
Q 1884 -81 1375 -81 
Q 1106 -81 879 16 
Q 653 113 556 194 
L 494 -9 
L 259 -9 
L 228 1063 
L 444 1063 
Q 469 941 550 778 
Q 631 616 747 484 
Q 869 347 1039 253 
Q 1209 159 1422 159 
Q 1722 159 1884 295 
Q 2047 431 2047 684 
Q 2047 816 1995 911 
Q 1944 1006 1844 1078 
Q 1741 1150 1591 1208 
Q 1441 1266 1256 1322 
Q 1109 1366 929 1442 
Q 750 1519 622 1622 
Q 484 1731 396 1890 
Q 309 2050 309 2266 
Q 309 2644 590 2906 
Q 872 3169 1344 3169 
Q 1525 3169 1714 3122 
Q 1903 3075 2022 3009 
L 2094 3172 
L 2319 3172 
L 2366 2181 
L 2150 2181 
Q 2084 2513 1867 2720 
Q 1650 2928 1338 2928 
Q 1081 2928 934 2800 
Q 788 2672 788 2491 
Q 788 2350 836 2256 
Q 884 2163 981 2097 
Q 1075 2034 1217 1979 
Q 1359 1925 1569 1856 
Q 1775 1791 1958 1703 
Q 2141 1616 2259 1509 
z
" transform="scale(0.015625)"/>
      </defs>
      <use xlink:href="#Georgia-41"/>
      <use xlink:href="#Georgia-73" x="67.089844"/>
      <use xlink:href="#Georgia-69" x="110.302734"/>
      <use xlink:href="#Georgia-61" x="139.599609"/>
     </g>
    </g>
    <g id="PathCollection_9">
     <g>
      <use xlink:href="#m7e59ca0c42" x="141.081719" y="300.722445" style="fill: #31688e; fill-opacity: 0.8; stroke: #31688e; stroke-opacity: 0.8"/>
     </g>
    </g>
    <g id="text_19">
     <!-- Europe -->
     <g transform="translate(159.081719 303.347445) scale(0.1 -0.1)">
      <defs>
       <path id="Georgia-45" d="M 4034 1306 
L 3950 0 
L 269 0 
L 269 222 
Q 363 228 519 248 
Q 675 269 722 291 
Q 822 338 861 413 
Q 900 488 900 603 
L 900 3791 
Q 900 3894 865 3973 
Q 831 4053 722 4103 
Q 638 4144 495 4175 
Q 353 4206 269 4213 
L 269 4434 
L 3700 4434 
L 3700 3366 
L 3466 3366 
Q 3403 3603 3195 3870 
Q 2988 4138 2800 4163 
Q 2703 4175 2568 4181 
Q 2434 4188 2263 4188 
L 1566 4188 
L 1566 2425 
L 2066 2425 
Q 2306 2425 2417 2470 
Q 2528 2516 2613 2622 
Q 2681 2713 2729 2864 
Q 2778 3016 2794 3150 
L 3028 3150 
L 3028 1416 
L 2794 1416 
Q 2781 1566 2726 1733 
Q 2672 1900 2613 1975 
Q 2516 2097 2392 2134 
Q 2269 2172 2066 2172 
L 1566 2172 
L 1566 841 
Q 1566 641 1594 525 
Q 1622 409 1703 350 
Q 1784 291 1925 273 
Q 2066 256 2325 256 
Q 2428 256 2597 256 
Q 2766 256 2881 269 
Q 3000 281 3126 314 
Q 3253 347 3306 403 
Q 3450 553 3608 858 
Q 3766 1163 3809 1306 
L 4034 1306 
z
" transform="scale(0.015625)"/>
       <path id="Georgia-75" d="M 3528 56 
L 2525 -13 
L 2478 31 
L 2478 422 
L 2459 422 
Q 2384 344 2290 255 
Q 2197 166 2075 94 
Q 1934 9 1803 -34 
Q 1672 -78 1431 -78 
Q 1022 -78 808 189 
Q 594 456 594 966 
L 594 2441 
Q 594 2553 551 2629 
Q 509 2706 428 2763 
Q 372 2800 287 2817 
Q 203 2834 109 2841 
L 109 3044 
L 1138 3119 
L 1184 3075 
L 1184 934 
Q 1184 600 1334 431 
Q 1484 263 1694 263 
Q 1866 263 2000 316 
Q 2134 369 2225 441 
Q 2309 506 2373 579 
Q 2438 653 2472 716 
L 2472 2463 
Q 2472 2566 2428 2645 
Q 2384 2725 2306 2781 
Q 2250 2819 2139 2826 
Q 2028 2834 1891 2841 
L 1891 3044 
L 3009 3119 
L 3056 3075 
L 3056 628 
Q 3056 522 3100 447 
Q 3144 372 3222 319 
Q 3278 284 3356 273 
Q 3434 263 3528 259 
L 3528 56 
z
" transform="scale(0.015625)"/>
      </defs>
      <use xlink:href="#Georgia-45"/>
      <use xlink:href="#Georgia-75" x="65.332031"/>
      <use xlink:href="#Georgia-72" x="122.851562"/>
      <use xlink:href="#Georgia-6f" x="163.818359"/>
      <use xlink:href="#Georgia-70" x="217.724609"/>
      <use xlink:href="#Georgia-65" x="274.853516"/>
     </g>
    </g>
    <g id="PathCollection_10">
     <g>
      <use xlink:href="#m5f4592d8a2" x="141.081719" y="315.45057" style="fill: #1f9e89; fill-opacity: 0.8; stroke: #1f9e89; stroke-opacity: 0.8"/>
     </g>
    </g>
    <g id="text_20">
     <!-- North_America -->
     <g transform="translate(159.081719 318.07557) scale(0.1 -0.1)">
      <defs>
       <path id="Georgia-4e" d="M 4856 4213 
Q 4769 4209 4587 4162 
Q 4406 4116 4328 4066 
Q 4216 3988 4177 3766 
Q 4138 3544 4138 3203 
L 4138 -44 
L 3866 -44 
L 1178 3584 
L 1178 1297 
Q 1178 913 1226 706 
Q 1275 500 1375 413 
Q 1447 344 1672 284 
Q 1897 225 1969 222 
L 1969 0 
L 150 0 
L 150 222 
Q 234 228 434 283 
Q 634 338 684 381 
Q 794 469 834 648 
Q 875 828 875 1263 
L 875 3447 
Q 875 3591 825 3734 
Q 775 3878 691 3956 
Q 578 4059 386 4132 
Q 194 4206 75 4213 
L 75 4434 
L 1341 4434 
L 3834 1053 
L 3834 3163 
Q 3834 3550 3784 3758 
Q 3734 3966 3641 4034 
Q 3553 4094 3354 4150 
Q 3156 4206 3053 4213 
L 3053 4434 
L 4856 4434 
L 4856 4213 
z
" transform="scale(0.015625)"/>
       <path id="Georgia-68" d="M 3572 0 
L 2059 0 
L 2059 206 
Q 2131 213 2218 219 
Q 2306 225 2363 244 
Q 2450 272 2492 342 
Q 2534 413 2534 525 
L 2534 2109 
Q 2534 2438 2379 2616 
Q 2225 2794 2003 2794 
Q 1841 2794 1702 2742 
Q 1563 2691 1453 2616 
Q 1347 2538 1290 2459 
Q 1234 2381 1203 2328 
L 1203 556 
Q 1203 450 1245 381 
Q 1288 313 1375 275 
Q 1444 244 1517 228 
Q 1591 213 1678 206 
L 1678 0 
L 166 0 
L 166 206 
Q 238 213 316 220 
Q 394 228 447 244 
Q 534 272 578 342 
Q 622 413 622 525 
L 622 4113 
Q 622 4219 573 4325 
Q 525 4431 447 4484 
Q 391 4525 248 4542 
Q 106 4559 19 4566 
L 19 4766 
L 1159 4838 
L 1203 4791 
L 1203 2641 
L 1216 2641 
Q 1319 2744 1403 2823 
Q 1488 2903 1625 2991 
Q 1744 3066 1905 3116 
Q 2066 3166 2266 3166 
Q 2678 3166 2900 2905 
Q 3122 2644 3122 2153 
L 3122 550 
Q 3122 441 3161 373 
Q 3200 306 3291 269 
Q 3363 241 3420 227 
Q 3478 213 3572 206 
L 3572 0 
z
" transform="scale(0.015625)"/>
       <path id="Georgia-5f" d="M 4131 -881 
L -16 -881 
L -16 -566 
L 4131 -566 
L 4131 -881 
z
" transform="scale(0.015625)"/>
       <path id="Georgia-6d" d="M 5503 0 
L 4000 0 
L 4000 206 
Q 4072 213 4145 219 
Q 4219 225 4275 244 
Q 4363 272 4405 342 
Q 4447 413 4447 525 
L 4447 2116 
Q 4447 2441 4298 2617 
Q 4150 2794 3928 2794 
Q 3775 2794 3640 2747 
Q 3506 2700 3394 2616 
Q 3303 2547 3242 2467 
Q 3181 2388 3150 2334 
L 3150 556 
Q 3150 447 3187 376 
Q 3225 306 3316 269 
Q 3388 241 3445 227 
Q 3503 213 3597 206 
L 3597 0 
L 2125 0 
L 2125 206 
Q 2197 213 2264 219 
Q 2331 225 2388 244 
Q 2475 272 2517 342 
Q 2559 413 2559 525 
L 2559 2116 
Q 2559 2441 2411 2617 
Q 2263 2794 2041 2794 
Q 1888 2794 1753 2745 
Q 1619 2697 1506 2613 
Q 1416 2544 1353 2458 
Q 1291 2372 1259 2328 
L 1259 563 
Q 1259 456 1303 384 
Q 1347 313 1434 275 
Q 1500 244 1569 228 
Q 1638 213 1722 206 
L 1722 0 
L 225 0 
L 225 206 
Q 297 213 373 219 
Q 450 225 506 244 
Q 594 272 636 342 
Q 678 413 678 525 
L 678 2441 
Q 678 2541 633 2620 
Q 588 2700 506 2756 
Q 447 2794 359 2817 
Q 272 2841 178 2847 
L 178 3050 
L 1209 3119 
L 1253 3075 
L 1253 2634 
L 1275 2634 
Q 1353 2713 1465 2819 
Q 1578 2925 1675 2991 
Q 1784 3066 1948 3116 
Q 2113 3166 2303 3166 
Q 2603 3166 2818 3005 
Q 3034 2844 3128 2616 
Q 3241 2725 3327 2808 
Q 3413 2891 3553 2984 
Q 3672 3066 3833 3116 
Q 3994 3166 4191 3166 
Q 4581 3166 4809 2909 
Q 5038 2653 5038 2122 
L 5038 556 
Q 5038 447 5075 376 
Q 5113 306 5203 269 
Q 5275 241 5345 227 
Q 5416 213 5503 206 
L 5503 0 
z
" transform="scale(0.015625)"/>
      </defs>
      <use xlink:href="#Georgia-4e"/>
      <use xlink:href="#Georgia-6f" x="76.708984"/>
      <use xlink:href="#Georgia-72" x="130.615234"/>
      <use xlink:href="#Georgia-74" x="171.582031"/>
      <use xlink:href="#Georgia-68" x="206.103516"/>
      <use xlink:href="#Georgia-5f" x="264.306641"/>
      <use xlink:href="#Georgia-41" x="328.613281"/>
      <use xlink:href="#Georgia-6d" x="395.703125"/>
      <use xlink:href="#Georgia-65" x="483.789062"/>
      <use xlink:href="#Georgia-72" x="532.128906"/>
      <use xlink:href="#Georgia-69" x="573.095703"/>
      <use xlink:href="#Georgia-63" x="602.392578"/>
      <use xlink:href="#Georgia-61" x="647.802734"/>
     </g>
    </g>
    <g id="PathCollection_11">
     <g>
      <use xlink:href="#mfd97a0fd46" x="258.902031" y="300.722445" style="fill: #26828e; fill-opacity: 0.8; stroke: #26828e; stroke-opacity: 0.8"/>
     </g>
    </g>
    <g id="text_21">
     <!-- Oceania -->
     <g transform="translate(276.902031 303.347445) scale(0.1 -0.1)">
      <defs>
       <path id="Georgia-4f" d="M 3888 3909 
Q 4181 3603 4347 3170 
Q 4513 2738 4513 2213 
Q 4513 1684 4344 1253 
Q 4175 822 3875 519 
Q 3584 219 3200 56 
Q 2816 -106 2381 -106 
Q 1919 -106 1526 67 
Q 1134 241 853 550 
Q 572 853 411 1286 
Q 250 1719 250 2213 
Q 250 2753 419 3176 
Q 588 3600 884 3909 
Q 1178 4216 1567 4378 
Q 1956 4541 2381 4541 
Q 2822 4541 3212 4375 
Q 3603 4209 3888 3909 
z
M 3422 766 
Q 3597 1050 3676 1409 
Q 3756 1769 3756 2213 
Q 3756 2669 3667 3050 
Q 3578 3431 3406 3700 
Q 3234 3966 2975 4114 
Q 2716 4263 2381 4263 
Q 2006 4263 1743 4091 
Q 1481 3919 1316 3631 
Q 1159 3356 1082 2987 
Q 1006 2619 1006 2213 
Q 1006 1763 1087 1400 
Q 1169 1038 1344 756 
Q 1513 481 1769 326 
Q 2025 172 2381 172 
Q 2716 172 2984 328 
Q 3253 484 3422 766 
z
" transform="scale(0.015625)"/>
      </defs>
      <use xlink:href="#Georgia-4f"/>
      <use xlink:href="#Georgia-63" x="74.414062"/>
      <use xlink:href="#Georgia-65" x="119.824219"/>
      <use xlink:href="#Georgia-61" x="168.164062"/>
      <use xlink:href="#Georgia-6e" x="218.554688"/>
      <use xlink:href="#Georgia-69" x="277.636719"/>
      <use xlink:href="#Georgia-61" x="306.933594"/>
     </g>
    </g>
    <g id="PathCollection_12">
     <g>
      <use xlink:href="#m62e53079c3" x="342.634844" y="300.722445" style="fill: #6ece58; fill-opacity: 0.8; stroke: #6ece58; stroke-opacity: 0.8"/>
     </g>
    </g>
    <g id="text_22">
     <!-- South_America -->
     <g transform="translate(360.634844 303.347445) scale(0.1 -0.1)">
      <use xlink:href="#Georgia-53"/>
      <use xlink:href="#Georgia-6f" x="56.103516"/>
      <use xlink:href="#Georgia-75" x="110.009766"/>
      <use xlink:href="#Georgia-74" x="167.529297"/>
      <use xlink:href="#Georgia-68" x="202.050781"/>
      <use xlink:href="#Georgia-5f" x="260.253906"/>
      <use xlink:href="#Georgia-41" x="324.560547"/>
      <use xlink:href="#Georgia-6d" x="391.650391"/>
      <use xlink:href="#Georgia-65" x="479.736328"/>
      <use xlink:href="#Georgia-72" x="528.076172"/>
      <use xlink:href="#Georgia-69" x="569.042969"/>
      <use xlink:href="#Georgia-63" x="598.339844"/>
      <use xlink:href="#Georgia-61" x="643.75"/>
     </g>
    </g>
   </g>
  </g>
 </g>
 <defs>
  <clipPath id="pc163fa5cb3">
   <rect x="48.22" y="29.04" width="390.125" height="230.9264"/>
  </clipPath>
 </defs>
</svg>
